/* XPM */
static char *result[] = {
/* columns rows colors chars-per-pixel */
"32 32 161 2 ",
"   c #5F4B37",
".  c #5F4B3B",
"X  c #684E42",
"o  c #764D40",
"O  c #784E43",
"+  c #635243",
"@  c #655348",
"#  c #635A4D",
"$  c #69594B",
"%  c #7B5142",
"&  c #7C544B",
"*  c #655E53",
"=  c #735B51",
"-  c #6E604F",
";  c #676055",
":  c #696157",
">  c #6C655A",
",  c #6F695E",
"<  c #716256",
"1  c #7B6456",
"2  c #75675A",
"3  c #7B6559",
"4  c #736A5C",
"5  c #78695B",
"6  c #746E61",
"7  c #7B6E62",
"8  c #767165",
"9  c #797366",
"0  c #7A7669",
"q  c #7D796C",
"w  c #7F7D71",
"e  c #90483E",
"r  c #845148",
"t  c #84584F",
"y  c #925047",
"u  c #94544C",
"i  c #9E534C",
"p  c #91594D",
"a  c #875C55",
"s  c #8C5C55",
"d  c #975D56",
"f  c #9D5A53",
"g  c #A34E48",
"h  c #A94E49",
"j  c #A45049",
"k  c #A9524B",
"l  c #B3514E",
"z  c #BD514F",
"x  c #A75450",
"c  c #A95652",
"v  c #A25B55",
"b  c #AB5B56",
"n  c #AC5E59",
"m  c #BD5452",
"M  c #B45B55",
"N  c #BE5856",
"B  c #B45E5A",
"V  c #BF5D5B",
"C  c #896056",
"Z  c #85655D",
"A  c #8B655A",
"S  c #82695D",
"D  c #94665E",
"F  c #9A645C",
"G  c #99685F",
"H  c #A4655F",
"J  c #AC625D",
"K  c #B3615C",
"L  c #B9615D",
"P  c #846E63",
"I  c #8E6D65",
"U  c #9C6760",
"Y  c #946B63",
"T  c #9C6C64",
"R  c #9D6E68",
"E  c #847367",
"W  c #84756A",
"Q  c #89766B",
"!  c #837A6E",
"~  c #8C796E",
"^  c #957269",
"/  c #9D736C",
"(  c #827E72",
")  c #8C7D73",
"_  c #967D73",
"`  c #9A7C72",
"'  c #A76660",
"]  c #AC6561",
"[  c #A56A63",
"{  c #AA6B66",
"}  c #A06F69",
"|  c #AB6E6A",
" . c #B26562",
".. c #BB6562",
"X. c #B56965",
"o. c #BA6A66",
"O. c #B46D69",
"+. c #BB6E6A",
"@. c #A1746E",
"#. c #AA736C",
"$. c #B4736F",
"%. c #BB726E",
"&. c #A57771",
"*. c #AD7671",
"=. c #A57A74",
"-. c #AB7B74",
";. c #BD7571",
":. c #B07871",
">. c #BA7975",
",. c #CB5556",
"<. c #C35D5B",
"1. c #CD5C5C",
"2. c #D75557",
"3. c #DC5759",
"4. c #D55A5B",
"5. c #DD5B5D",
"6. c #E25B5F",
"7. c #EB5A5F",
"8. c #C2615F",
"9. c #CB605F",
"0. c #D45E60",
"q. c #DD5F62",
"w. c #E55E62",
"e. c #EA5D62",
"r. c #C36463",
"t. c #CB6362",
"y. c #C36967",
"u. c #CC6866",
"i. c #C36C6A",
"p. c #CE6A6A",
"a. c #D26364",
"s. c #DB6264",
"d. c #D06768",
"f. c #DB6669",
"g. c #D16868",
"h. c #DB6D6F",
"j. c #C2706D",
"k. c #C37371",
"l. c #C17875",
"z. c #CC7C79",
"x. c #D37676",
"c. c #DC7979",
"v. c #E36164",
"b. c #EA6065",
"n. c #E4676A",
"m. c #ED696D",
"M. c #E56E70",
"N. c #E37779",
"B. c #858275",
"V. c #898477",
"C. c #878479",
"Z. c #89867A",
"A. c #8C897C",
"S. c #938276",
"D. c #94847A",
"F. c #99817A",
"G. c #908D7F",
"H. c #8F8D81",
"J. c #908E81",
"K. c #939186",
"L. c None",
/* pixels */
"L.L.L.L.L.L.L.L.L.L.L.L.h.o.o.X.X.y.L z.L.L.L.L.L.L.L.L.L.L.L.L.",
"L.L.L.L.L.L.L.L.L.L.L.L.L Z.V.%.a.^ Z.o.L.L.L.L.L.L.L.L.L.L.L.L.",
"L.L.L.L.L.L.L.L.L.L.M.9.9.B.Z.y.a.` Z.u.,.<.L.L.L.L.L.L.L.L.L.L.",
"L.L.L.L.L.L.L.L.p.y.H L 8.Z.Z.:.u.S.Z.y.K J y.8.L.L.L.L.L.L.L.L.",
"L.L.L.L.L.L.8.j.L 9.#.B.X.Z.A.A.A.A.Z.o.Z.-.t.t.1.X.L.L.L.L.L.L.",
"L.L.L.L.L.r.=.G u.Q B.B.X.A.A.A.G.G.Z.X.B.B.D.u.p +.o.L.L.L.L.L.",
"L.L.L.L.a.F.] o.B.B.B.S.4.! 4 , , , Z.X.Z.B.B.B.%.v _ 8.L.L.L.L.",
"L.L.L.L o.r.O.B.B.B.! A 4.  i k k j - v 0 B.B.w ( $.<.i.+.L.L.L.",
"L.L.N.-.E +.( Z.C.6 @ g N K A 4 6 I w.w.B 6 8 ( ! ( +.< *.z.L.L.",
"L.L.x.Q ..D.H.Z.( X ,.d 4 4 4 4 8 8  .q.{ r.= q C.w ) V ~ K L.L.",
"L.0.1.B 1.X.H.C.X m < > 4 4 4 8 8 I ' 8 7 7 9.= B.Z.+.a.M 9.t.L ",
"j.=.@.@./ | a.f k < 4 3 K K K J ] q.8.K D 8 0 K f g.| &.-.&.&.k.",
"X.B.( ( ( ( B.u s S 5 8.q.X.X.X. ...o.p.w.7 7 ^ y ( B.B.B.B.B.;.",
"o.B.o.O.B.B.C.m > Y  .8.K 6 8 8 8 0 8 8 w.Y 8 8 8.9 ( B.%...~ k.",
"X.C.r.y.B.B.H.g 8 8 R e.] 9 8 9 9 9 8 9 e.Y 8 8 X.5 B.V.%.u.X.l.",
"o.C.i.$.C.C.H.g 8 8 9 b. .0 q 0 0 0 0 9 w.9 8 8 X.5 B.A.;.o.D.l.",
"o.H.Z.Z.Z.V.A.g 8 9 0 r.X.0 q 9 0 q 0 q s.0 8 6 ] 5 C.C.H.A.Z.;.",
"o.K.H.J.^ U 9.4.q q q y.X.0 0 q q q q q v.0 8 6 4.t.U U Q H.Z.l.",
"b > * > t.-.( R ' w q r.X.0 q q q q q q v.0 0 ' Y W $.w.3 * : ] ",
"c v a.9.q.D.B.C.O.P q y.s.X.X.K { ....t.v.0 P n ! ( ~ q.t.d.n K ",
"n.,.C.q n y.( C.V.i.T w $.+.+.%.+.f.v.+./ Y ..( B.B.u.x ( ( 9.0.",
"L.M.I ( Q w.-.Z.C.C.i.v S 0 q q q q #.W f r.C.C.C.=.w.1 ( ` <.L.",
"L.L.c B.' w.e.d.Z.Z.B.@.L L L K n L D K &.Z.Z.Z.D.w.4.f C.] L.L.",
"L.L.N.] ;.p.b.b.) A.B.B.| %.-.=.=.&.y.{ B.Z.A.) w.w.S g.n r.L.L.",
"L.L.L.a.q ( ) s.e.t.` Z.O.V.V.V.V.V.B.o.V.F.t.7.0.Q w 9 ,.L.L.L.",
"L.L.L.L.a ( Z.H.q.e.w.9.o.V.Z.#.X.S.B.o.t.6.e.0.E q 9 t c.L.L.L.",
"L.L.L.L.0.s ( _ i.*.q.e.4.A.A.+.y.` Z.s.7.5.{ j.Q ! s l L.L.L.L.",
"L.L.L.L.L.n.d 8.( C.) R o.G.G.$.;.S.A.y.F V.A.E d r a.L.L.L.L.L.",
"L.L.L.L.L.L.L.5.& ; : 9 K C.( w ! q B.K < 2 + o 2.L.L.L.L.L.L.L.",
"L.L.L.L.L.L.L.L.e.n % # x , : : : ; ; b . % e v.L.L.L.L.L.L.L.L.",
"L.L.L.L.L.L.L.L.L.L.b.m.t.; # * * * # N m.s.L.L.L.L.L.L.L.L.L.L.",
"L.L.L.L.L.L.L.L.L.L.L.L.4.h h g g k k l L.L.L.L.L.L.L.L.L.L.L.L."
};
