/* XPM */
static char *result[] = {
/* columns rows colors chars-per-pixel */
"32 32 61 1 ",
"  c #523725",
". c #573927",
"X c #573E2C",
"o c #593F2C",
"O c #5D432F",
"+ c #574130",
"@ c #5A4433",
"# c #5F4B37",
"$ c #5D4B3C",
"% c #624936",
"& c #624C3B",
"* c #67513F",
"= c #5C4F42",
"- c #5E5347",
"; c #624F40",
": c #645344",
"> c #6A5644",
", c #635749",
"< c #685749",
"1 c #655A4D",
"2 c #6C5B4C",
"3 c #715D4D",
"4 c #665E53",
"5 c #6A5E51",
"6 c #735E50",
"7 c #6E604F",
"8 c #676055",
"9 c #6C6254",
"0 c #6D655A",
"q c #6F695E",
"w c #726454",
"e c #786254",
"r c #736759",
"t c #736A5C",
"y c #796A5C",
"u c #756E61",
"i c #7A6F61",
"p c #767164",
"a c #7B7264",
"s c #777468",
"d c #7B7669",
"f c #7D796C",
"g c #7F7C70",
"h c #806A59",
"j c #817465",
"k c #827768",
"l c #827A6D",
"z c #827E72",
"x c #858175",
"c c #8A8376",
"v c #878479",
"b c #89867A",
"n c #8C897C",
"m c #908D7F",
"M c #9A8A7E",
"N c #8F8C81",
"B c #928D81",
"V c #939186",
"C c #9F9288",
"Z c #A19589",
"A c None",
/* pixels */
"AAAAAAAAAAAAViiiaiiZAAAAAAAAAAAA",
"AAAAAAAAAAAA3ncxxaciAAAAAAAAAAAA",
"AAAAAAAAAAM7ecbakcnj**AAAAAAAAAA",
"AAAAAAAAcawwybbclccjwya7AAAAAAAA",
"AAAAAAwvy7xxinbnnnbabbpy2jAAAAAA",
"AAAAAyvyidxxannmmmbpxxbf>faAAAAA",
"AAAArnydxxcb%xt0qtxtbxxxc>xwAAAA",
"AAArkrfxxcg9##%##*77dzxzzx7llAAA",
"AAAxilzvvu-o#7rqypt=<0szzlzwzZAA",
"AAClyvNbz=o5qttuppuqar4dvzzwzwAA",
"AA>2<dNv=X0rttuppptupuw4xvfr>6hA",
"cvzzgdu5+9tr87790990tps02ddvxxxn",
"azzzzzz;50q99upppppd9upa%vzzxcxn",
"jxddxzv@0ut00pppsapp00sp5azccyzn",
"axiavxN@pps,tpppssas0uppsyzbcaim",
"jblxvvN@pppqusfdsddprsppuycbbanB",
"knnncnn@sssuudddfddfuspuqyvbnnnn",
"kVnNduw%fffupddffffftdpt#ttyfncV",
"1008ynzpqffppddfffffpsdqtgxy9800",
":2pw>vxxzpfsquyuuutyrspwzgg9ta90",
"A@xf7pbvxxuffggggftgfurgvxz$xv2A",
"AApzf>bvbbd7ifffffff7uxbvv:wxl2A",
"AA,zu#0abbcxw36e77twxbbbnu$>vuAA",
"AAArcf7txbcxjxncccfixcnx4=yd6yAA",
"AAAygzzr<uxnjbccxxxabvt:&lzdoAAA",
"AAAA4zbny>9wabnzkxcky2$2ddd,AAAA",
"AAAAA4zblz:@3mclacckO%dxld4oAAAA",
"AAAAAA60zvzdimmcncndtxvd5$jAAAAA",
"AAAAAAA.,40awvzglfxy9r:# AAAAAAA",
"AAAAAAAAA6=,&008084:#&XAAAAAAAAA",
"AAAAAAAAAAAAe844444$AAAAAAAAAAAA",
"AAAAAAAAAAAAAXX+++X#AAAAAAAAAAAA"
};
