/* XPM */
static char *result[] = {
/* columns rows colors chars-per-pixel */
"32 32 151 2 ",
"   c #5F4B37",
".  c #5F4B3B",
"X  c #3E585D",
"o  c #39636F",
"O  c #2F6475",
"+  c #396370",
"@  c #3E6976",
"#  c #31677B",
"$  c #3B6C7C",
"%  c #4A4A44",
"&  c #564F45",
"*  c #565047",
"=  c #5A5245",
"-  c #54544F",
";  c #5D5449",
":  c #465454",
">  c #4A5654",
",  c #4F5955",
"<  c #41575A",
"1  c #4F5E5D",
"2  c #545A55",
"3  c #5B5B53",
"4  c #525E5A",
"5  c #625442",
"6  c #635A4D",
"7  c #69594B",
"8  c #645E53",
"9  c #5B615C",
"0  c #6E604F",
"q  c #676055",
"w  c #696257",
"e  c #61645D",
"r  c #6C655A",
"t  c #6E695E",
"y  c #706556",
"u  c #726A5C",
"i  c #78695B",
"p  c #425D61",
"a  c #466267",
"s  c #4F6062",
"d  c #45646D",
"f  c #536465",
"g  c #5C6562",
"h  c #5C6966",
"j  c #54686A",
"k  c #5B6E6D",
"l  c #436770",
"z  c #476B75",
"x  c #4C6C73",
"c  c #536E73",
"v  c #5A6F70",
"b  c #45717D",
"n  c #4C737C",
"m  c #577277",
"M  c #5A7173",
"N  c #53747B",
"B  c #5B7679",
"V  c #51787F",
"C  c #5D7A7D",
"Z  c #666A65",
"A  c #696C63",
"S  c #646E6A",
"D  c #736E62",
"F  c #63726D",
"G  c #6B726C",
"H  c #767165",
"J  c #797366",
"K  c #74746A",
"L  c #7A7669",
"P  c #76786F",
"I  c #7D796C",
"U  c #637373",
"Y  c #6B7673",
"T  c #6D7A76",
"R  c #607779",
"E  c #647B7C",
"W  c #6B7D7C",
"Q  c #777A71",
"!  c #7C7C73",
"~  c #717E79",
"^  c #827B6F",
"/  c #817E72",
"(  c #6E807D",
")  c #74827F",
"_  c #7D827A",
"`  c #858275",
"'  c #898477",
"]  c #86847A",
"[  c #89867A",
"{  c #8C897C",
"}  c #908D7F",
"|  c #2C738C",
" . c #357387",
".. c #3D7283",
"X. c #34758B",
"o. c #3A778B",
"O. c #2E7994",
"+. c #337B93",
"@. c #3B7E94",
"#. c #357F99",
"$. c #457784",
"%. c #4A7581",
"&. c #4C7985",
"*. c #417B8D",
"=. c #4C7C8A",
"-. c #517680",
";. c #547B84",
":. c #5C7D84",
">. c #527D8A",
",. c #5C7E88",
"<. c #447F92",
"1. c #647E81",
"2. c #697F81",
"3. c #3B8097",
"4. c #37839E",
"5. c #3C849C",
"6. c #5C8187",
"7. c #56828C",
"8. c #5C858E",
"9. c #438195",
"0. c #438499",
"q. c #558491",
"w. c #508898",
"e. c #638185",
"r. c #6B8385",
"t. c #648489",
"y. c #6C868A",
"u. c #6D898C",
"i. c #748583",
"p. c #798683",
"a. c #758987",
"s. c #7A8985",
"d. c #738D8E",
"f. c #678B92",
"g. c #6C8C93",
"h. c #738E91",
"j. c #749194",
"k. c #7C989D",
"l. c #4288A2",
"z. c #579AB4",
"x. c #6492A2",
"c. c #7596A0",
"v. c #7A9DA9",
"b. c #75A5B5",
"n. c #808680",
"m. c #858981",
"M. c #8F8D81",
"N. c #908E81",
"B. c #939186",
"V. c #83979A",
"C. c None",
/* pixels */
"C.C.C.C.C.C.C.C.C.C.C.C.x.( C E ( ( C k.C.C.C.C.C.C.C.C.C.C.C.C.",
"C.C.C.C.C.C.C.C.C.C.C.C.m _ ' r.7.P ' C C.C.C.C.C.C.C.C.C.C.C.C.",
"C.C.C.C.C.C.C.C.C.C.x.n V ' ' 6.8._ [ 6.l x C.C.C.C.C.C.C.C.C.C.",
"C.C.C.C.C.C.C.C.f.( F B B ' { a.8.] [ 6.M F 6.m C.C.C.C.C.C.C.C.",
"C.C.C.C.C.C.N f.N x ( ` ( { ' { { { { ( ] a.;.V n T C.C.C.C.C.C.",
"C.C.C.C.C.C p.G ( L ] ` B { { { } } [ E ` ` [ 6.8 e.:.C.C.C.C.C.",
"C.C.C.C.&.m.F W ` ` ' ] @ ` u u t r ] B ' ` ` ` u.9 _ m C.C.C.C.",
"C.C.C.B e.V 2.` ` ` _ e $   , , 4 9 7 j L _ ` _ ` r.m e.r.C.C.C.",
"C.C.C.i.J 1.] ' [ D ; : a v A u u K 5.X.j t H ` ! ^ t.u i.V.C.C.",
"C.C.c.! B m.[ [ / = X Z y u u D H J B <.E -.8 I ] / ! M ! v C.C.",
"C.&.z v b 1.M.] & X r u u u D H H P U H H D n 8 ` ] e.&.f V :.M ",
"y.i.i.2.W W >.g : w u t c c c v M o.n m S H K M g q.W p.p.i.i.g.",
"E / / / / / ` 3 e A t n *.C C E E C :.7.3.H H T ; / / ` ` ' ' d.",
"E ' :.2.` / ] p t G B -.M H H H J J J J 5.S H H N J / ' y.R ! h.",
"W ] ;.1.] ` M.: H D Y +.B J H J J J J J 4.S H H C i / ] u.:.E h.",
"W ] t.y.] ' M.: H H K 4.B L I L L L L H 0.H H J C i ] ' d.2.m.h.",
"2.{ { ] ] ] { > J J J ;.C L I L L I L I 9.J H H B i ] [ { { [ h.",
"2.B.N.N.P Y m @ L I I ;.E L L I I I I I 9.L H t @ -.S G ! } [ j.",
"f t w w :.a.` Y U I I 7.C L L I I I I I 0.L L F G I u.9.t 8 w c ",
"s h >.&.o.] ` ` r.L I 6.9.C B R R C B ;.5.L K k ! / ! *.>.q.S c ",
"C.+ ] I k ;.] ] ] t.G I e.e.t.r.r.w.0.t.( G B ! ] / 8.1 / ` n ..",
"C.C.K / ! X.s.] ] ] t.h H P I I I I ( P 9 C ' ] [ p.X.t / _ c C.",
"C.C.f / Y X.4.7.[ [ ' ) B k k F k v A M ) [ [ [ m.l.$ 3 ` B C.C.",
"C.C.b.M u.8.3.5._ [ ' ` T y.s.p.) s.6.T [ [ { _ @. .D q.k E C.C.",
"C.C.C.>.P / ] =.#.>._ { 2.] ' ' ] ' ` ( [ _ >.O.$ Q ^ L o C.C.C.",
"C.C.C.C.e / ] m.=.+.3.-.E ] { i.E _ ` e.;.@.O.$.L ^ P 8 v.C.C.C.",
"C.C.C.C.b g / n.t.i...| %.{ { r.6.` [ 7.| $ T t.P L 4 < C.C.C.C.",
"C.C.C.C.C.C.Z N ! / ] T E { { s.j.` { e.F ] [ L Z - q.C.C.C.C.C.",
"C.C.C.C.C.C.C.# 3 8 r L v ` / ^ I I ` U 0 i 5 & O C.C.C.C.C.C.C.",
"C.C.C.C.C.C.C.C.C.S & 6 4 t r r w q q s   = % l.C.C.C.C.C.C.C.C.",
"C.C.C.C.C.C.C.C.C.C.C.z.-.w 6 6 8 8 q d z.C.C.C.C.C.C.C.C.C.C.C.",
"C.C.C.C.C.C.C.C.C.C.C.C.%.: : : : : < p C.C.C.C.C.C.C.C.C.C.C.C."
};
