/* XPM */
static char *result[] = {
/* columns rows colors chars-per-pixel */
"32 32 175 2 ",
"   c #5F4B37",
".  c #5F4B3B",
"X  c #3E575C",
"o  c #356676",
"O  c #3A6471",
"+  c #3F6873",
"@  c #346779",
"#  c #306A7D",
"$  c #3F6C7B",
"%  c #4E554F",
"&  c #5A544B",
"*  c #54524A",
"=  c #4A5D5E",
"-  c #505652",
";  c #545B56",
":  c #635A4D",
">  c #665747",
",  c #655E53",
"<  c #5F6059",
"1  c #6E604F",
"2  c #676055",
"3  c #696157",
"4  c #6C655A",
"5  c #6C685D",
"6  c #666259",
"7  c #726A5C",
"8  c #78695B",
"9  c #495F62",
"0  c #46686F",
"q  c #4E696E",
"w  c #47646B",
"e  c #556463",
"r  c #576768",
"t  c #52696C",
"y  c #5C6D6C",
"u  c #4C6D75",
"i  c #426D79",
"p  c #526D71",
"a  c #4C727D",
"s  c #517177",
"d  c #5C7476",
"f  c #517178",
"g  c #5C767A",
"h  c #5C787C",
"j  c #656760",
"k  c #6C6C63",
"l  c #646F6A",
"z  c #746E61",
"x  c #6E746C",
"c  c #757165",
"v  c #797366",
"b  c #73756B",
"n  c #7A7669",
"m  c #73786F",
"M  c #7D796C",
"N  c #627676",
"B  c #677875",
"V  c #687877",
"C  c #647C7E",
"Z  c #6E7C7A",
"A  c #767B74",
"S  c #7B7D74",
"D  c #777F7A",
"F  c #787F79",
"G  c #827B6F",
"H  c #817E72",
"J  c #7D8077",
"K  c #76837F",
"L  c #7C827B",
"P  c #858275",
"I  c #898477",
"U  c #868479",
"Y  c #89867A",
"T  c #8C897C",
"R  c #908D7F",
"E  c #2B6F86",
"W  c #326E83",
"Q  c #2D718A",
"!  c #3F7586",
"~  c #3F7A8C",
"^  c #31748B",
"/  c #247A9B",
"(  c #2E7C9A",
")  c #317790",
"_  c #347C96",
"`  c #3C7D93",
"'  c #377F99",
"]  c #1B7EA5",
"[  c #247FA3",
"{  c #427382",
"}  c #4B7784",
"|  c #477885",
" . c #4A7885",
".. c #447A8B",
"X. c #4A7D8C",
"o. c #537A83",
"O. c #5B7D84",
"+. c #437E90",
"@. c #617F83",
"#. c #33829F",
"$. c #3B829A",
"%. c #1D83AB",
"&. c #1C8AB5",
"*. c #158EBE",
"=. c #1C8EBA",
"-. c #1D91BE",
";. c #2482A5",
":. c #2E83A2",
">. c #2D86A8",
",. c #3285A3",
"<. c #3B86A1",
"1. c #3588A5",
"2. c #3C89A3",
"3. c #348BAB",
"4. c #3A8DAA",
"5. c #258BB2",
"6. c #2B8DB2",
"7. c #228FB9",
"8. c #2491BC",
"9. c #3392B4",
"0. c #4E818F",
"q. c #5E8287",
"w. c #5A828C",
"e. c #54818D",
"r. c #458294",
"t. c #4C8293",
"y. c #44859B",
"u. c #4C869A",
"i. c #45889E",
"p. c #4C8A9E",
"a. c #528493",
"s. c #588693",
"d. c #548997",
"f. c #5D8994",
"g. c #548B9B",
"h. c #5A8D9C",
"j. c #64838A",
"k. c #6A878A",
"l. c #64888F",
"z. c #6C898D",
"x. c #658185",
"c. c #738583",
"v. c #7B8680",
"b. c #778987",
"n. c #7E8983",
"m. c #658B93",
"M. c #6B8C91",
"N. c #63919D",
"B. c #428BA3",
"V. c #418EA8",
"C. c #4B8EA2",
"Z. c #528DA0",
"A. c #4C91A8",
"S. c #5B93A3",
"D. c #5391A5",
"F. c #4497B6",
"G. c #4297B8",
"H. c #589EB9",
"J. c #5699B1",
"K. c #6A99A8",
"L. c #609AAD",
"P. c #56A0BE",
"I. c #148FC0",
"U. c #1791C1",
"Y. c #1C93C2",
"T. c #2093C1",
"R. c #2D97C0",
"E. c #309EC9",
"W. c #3E9CC1",
"Q. c #4FA3C4",
"!. c #828A84",
"~. c #8F8D81",
"^. c #908E81",
"/. c #939186",
"(. c None",
/* pixels */
"(.(.(.(.(.(.(.(.(.(.(.(.F.t.r.a.a.r.r.S.(.(.(.(.(.(.(.(.(.(.(.(.",
"(.(.(.(.(.(.(.(.(.(.(.(.$.Y I g.4.K I a.(.(.(.(.(.(.(.(.(.(.(.(.",
"(.(.(.(.(.(.(.(.(.(.4.:.$.I I i.4.b.T 2.( _ (.(.(.(.(.(.(.(.(.(.",
"(.(.(.(.(.(.(.(.A.i.e.0.r.I Y m.V.K Y p...o.y.$.(.(.(.(.(.(.(.(.",
"(.(.(.(.(.(.$.A.r.$.l.P e.Y Y Y Y R Y a.I m.2.4.#.w.(.(.(.(.(.(.",
"(.(.(.(.(.y.z.N $.m P P 0.T R R R R T 0.J U L 2.e a.y.(.(.(.(.(.",
"(.(.(.(.1.n.o.a.P P I L ;.P 7 4 5 7 P 0.I P U P g.u K $.(.(.(.(.",
"(.(.(.+.C.$.s.P P P P y ;.  0 + i 0 > | M P P J P g.$.p.s.(.(.(.",
"(.(.P.m.n u.U Y Y z & O ^ r.l 7 z V T.&.! k b H H M C.4 l.K.(.(.",
"(.(.J.A +.!.!.Y G & E f 7 7 4 7 z v X.6.X.<., S U H D r.F  .(.(.",
"(.,.( ..:.t.~.Y * E 5 4 7 7 z c v V X.z c c ' , P U g.1.{ ,.$.+.",
"Z.M.j.j.j.O.3.u o 4 7 k ~ ~ ~ X. .5.' +.d c b ..u 4.w.j.z.z.z.D.",
"a.P H H H H P w r l k $.5.r.r.0.t.r.y.4.=.c c @.9 H H H H P I S.",
"a.P y.s.P P U ^ 4 h r.$.X.z z v v v v v Y.d c c ' v H I h.t.S S.",
"a.P <.y.P P ~.O c z O.*.X.c c c v v v v Y.d c c a.8 H Y h.B.X.S.",
"a.U p.h.I U T O v c b Y.0.n M n n n n v 7.b v v t.8 Y Y h.u.!.S.",
"a.T T I T I T O c n M $.t.n n n n M n M 7.n c c ..8 P U T T Y S.",
"d./.~.~.Z h #.[ M M M <.0.n M M M M G M 7.n c 7 ;.<.g h A ~.Y S.",
"{ 6 4 2 <.M.L C o.S M 2.t.n n M M M M M 8.n n o.g S f.8.j 2 3 ..",
"$ a 3.,.5.n.P P d.b G 2.5.r.r.X.0.t.r.#.-.n x } G G J 5.1.4.} ..",
"T./ Y G | $.U U U C.N M s.p.p.g.d.9.-.p.x.g r.S Y H B.i P P #.;.",
"(.W.N H A =.z.T I U i.f x n M M M M w.m s r.U U Y M.&.4 H c.` (.",
"(.(.i H O.=.Y.4.I Y U k.r..... .X...d | k.Y Y Y !.T.[ u U X.(.(.",
"(.(.Q.X.g.4.-.Y.L Y Y P j.g.M.z.k.l.p.q.P Y T L &.&.k 9. .t.(.(.",
"(.(.(.3.M H L 6.U.3.c.T a.U I I P P P a.I b.1.*.;.A M n / (.(.(.",
"(.(.(.(.r H T !.3.I.=.<.y.I T j.w.L I u.<.=.I.>.m H v e H.(.(.(.",
"(.(.(.(.[ t H v.g.l.5.I.,.T T d.B.K Y 9.*.%.q.Z.m G t # (.(.(.(.",
"(.(.(.(.(.R.d ' F H F @.u.R T M.N.L T u.h L I n p 9 4.(.(.(.(.(.",
"(.(.(.(.(.(.(.;.; 6 4 v  .I H S H M P 0., 8 > % ] (.(.(.(.(.(.(.",
"(.(.(.(.(.(.(.(.Y.f ; : i 4 4 3 3 2 2 i   ; X 8.(.(.(.(.(.(.(.(.",
"(.(.(.(.(.(.(.(.(.(.(.E.<.4 : : , , , ) E.9.(.(.(.(.(.(.(.(.(.(.",
"(.(.(.(.(.(.(.(.(.(.(.(.[ o @ O O @ @ W (.(.(.(.(.(.(.(.(.(.(.(."
};
