/* XPM */
static char *result[] = {
/* columns rows colors chars-per-pixel */
"32 32 140 2 ",
"   c #5F4B37",
".  c #5F4B3B",
"X  c #6E4132",
"o  c #664B3D",
"O  c #6A4F3D",
"+  c #76473A",
"@  c #7C463A",
"#  c #754C3E",
"$  c #7C493C",
"%  c #5F4F43",
"&  c #604D40",
"*  c #6C4E42",
"=  c #7A4E40",
"-  c #625445",
";  c #6B5448",
":  c #635A4D",
">  c #69594B",
",  c #7C5144",
"<  c #70564B",
"1  c #7D574A",
"2  c #7E5A4F",
"3  c #655E53",
"4  c #6B5B50",
"5  c #755B52",
"6  c #7C5D51",
"7  c #6E604F",
"8  c #676055",
"9  c #6A6156",
"0  c #6C655A",
"q  c #6F695E",
"w  c #756455",
"e  c #73665A",
"r  c #7D675B",
"t  c #736A5C",
"y  c #7A695C",
"u  c #746E61",
"i  c #7E6F63",
"p  c #767165",
"a  c #797366",
"s  c #7A7669",
"d  c #7D796C",
"f  c #7F7D71",
"g  c #85453B",
"h  c #85483D",
"j  c #864D42",
"k  c #9A4740",
"l  c #924C44",
"z  c #815145",
"x  c #8C5045",
"c  c #805449",
"v  c #8C554B",
"b  c #835A4E",
"n  c #8A594E",
"m  c #94544B",
"M  c #9B524A",
"N  c #835C51",
"B  c #8C5F54",
"V  c #955D53",
"C  c #9B5B53",
"Z  c #A34943",
"A  c #B14F49",
"S  c #A3544C",
"D  c #AB524D",
"F  c #B1524C",
"G  c #A65551",
"H  c #A45B53",
"J  c #AB5955",
"K  c #A25E58",
"L  c #AB5F5B",
"P  c #B15654",
"I  c #B35956",
"U  c #B45E5A",
"Y  c #816256",
"T  c #8C6255",
"R  c #85665C",
"E  c #8B645A",
"W  c #846A5D",
"Q  c #8B695E",
"!  c #926256",
"~  c #94645A",
"^  c #9B645B",
"/  c #94695F",
"(  c #9D685E",
")  c #A06157",
"_  c #A3635C",
"`  c #AA645D",
"'  c #B2635E",
"]  c #B9655F",
"[  c #846C61",
"{  c #8D6A61",
"}  c #9C6760",
"|  c #946D63",
" . c #9B6C63",
".. c #807266",
"X. c #8B7166",
"o. c #84756A",
"O. c #8B756B",
"+. c #837A6E",
"@. c #887C6F",
"#. c #957166",
"$. c #9A7067",
"%. c #95746B",
"&. c #9C736B",
"*. c #827D72",
"=. c #8B7E73",
"-. c #9B7770",
";. c #947D73",
":. c #9D7B73",
">. c #AB6561",
",. c #A36B63",
"<. c #AE6A64",
"1. c #A66F69",
"2. c #AD6F6A",
"3. c #B36561",
"4. c #A4726B",
"5. c #A1786F",
"6. c #A47C73",
"7. c #AC7871",
"8. c #BC7B77",
"9. c #C56662",
"0. c #D17A78",
"q. c #858175",
"w. c #8B8376",
"e. c #878479",
"r. c #8A867A",
"t. c #8C897C",
"y. c #958176",
"u. c #9A8477",
"i. c #92837A",
"p. c #908D7F",
"a. c #A18077",
"s. c #A4847B",
"d. c #B7857F",
"f. c #8F8D81",
"g. c #908E81",
"h. c #939186",
"j. c #B58982",
"k. c #C18A85",
"l. c #CE8D8A",
"z. c None",
/* pixels */
"z.z.z.z.z.z.z.z.z.z.z.z.d.( | | $. .( d.z.z.z.z.z.z.z.z.z.z.z.z.",
"z.z.z.z.z.z.z.z.z.z.z.z.! r.r.&.1.o.r.#.z.z.z.z.z.z.z.z.z.z.z.z.",
"z.z.z.z.z.z.z.z.z.z.8.C ) e.r. .,.w.r.,.m m z.z.z.z.z.z.z.z.z.z.",
"z.z.z.z.z.z.z.z.7.$.T ~ ( w.r.y.4.w.t.$.! Q $.! z.z.z.z.z.z.z.z.",
"z.z.z.z.z.z.~ 6./ V y.q. .r.r.r.t.t.t.#.q.u._ _ C  .z.z.z.z.z.z.",
"z.z.z.z.z.( y.R ( o.q.q.| t.t.p.p.p.r.| q.q.r.&.1 %. .z.z.z.z.z.",
"z.z.z.z._ t.Q $.q.q.q.w.M +.t q t u t.| e.q.q.q.:.1 w.^ z.z.z.z.",
"z.z.z.~ &.^ %.q.q.q.q.y M   , $ h # 7 b s q.q.f q.-.! &.&.z.z.z.",
"z.z.z.;.i &.*.e.e.u - @ x T r t u ..>.G n e p *.f d &.w ;.j.z.z.",
"z.z.d.*.} r.f.e.*.% j 6 q t t t u a { >.O.} 3 f e.*.*.E *.~ z.z.",
"z._ M V C #.f.e.& g e 0 t u t p a ..{ p u i V 4 q.r.%._ v ) _ ~ ",
"6.;.;.=.O.O.,.6 $ 9 t e N T E T R L V B i u s E 6 4.%.;.;.;.;.a.",
"| *.*.*.*.*.q., 6 y t ~ _ | | | { | | 1.U u p o.+ q.*.q.q.w.q.a.",
" .q.$.%.q.q.e.j 0 i / ~ E u p p s s p u 3.y p p ~ a *.w.:.| @.a.",
"#.e.} | q.q.f.$ p u o.I Q u p p a s s p 3.W p p | y q.e.:.,.| s.",
"$.r.&.:.e.e.f.+ p p a 3.{ s f s s s s a >.p p p { y e.e.a.$.i.s.",
"%.t.r.r.r.r.t.$ p s s  .{ s s s s d s d >.s p u { y e.r.t.t.r.s.",
"&.h.f.f.O.W ^ m d d d ( X.d d s d d d d >.s p t M } R W +.g.w.s.",
"n 0 9 9 _ i.*.X.W d d $.| s s d d d d d >.s s R W +.;.3.e 3 9 { ",
", N ,.^ J r.q.q.-.a d $.` / / | Q / / ( 3.s a E f f +.L } ,.R B ",
"z.l q.*.T } e.e.e.5.W d %.-.-.%.-.2.3.-.O.W ~ *.q.e.4., *.q.C G ",
"z.z.i *.+.J i.e.e.e.$.Y i s s d d d O.d 2  .e.e.e.;.J w *.=.V z.",
"z.z.1 *.Q D ' ,.r.r.w.;.! ! T T T T R T y.r.r.r.f.3.M 1 q.{ z.z.",
"z.z.l.{ 6.4.' ] q.t.q.q.%.&.u.u.w.;.&./ q.r.t.*.L G y 1.E } z.z.",
"z.z.z.>.d q.*.>.U } =.t.$.e.q.r.q.q.w.$.r.i.( P M +.*.s l z.z.z.",
"z.z.z.z.5 *.r.t.` I ' ^  .w.r.-.$.w.q.$.( J P ) s +.s < k.z.z.z.",
"z.z.z.z.C 5 *.w.&.;.D D ) t.t.&.,.w.r.2.F S X.6.o.+.5 @ z.z.z.z.",
"z.z.z.z.z.z.N ~ *.q.q.O. .p.p.:.a.y.r.$.R q.r.d 6 * <.z.z.z.z.z.",
"z.z.z.z.z.z.z.Z ; 8 0 p E q.*.f d d e./ 7 e . o k z.z.z.z.z.z.z.",
"z.z.z.z.z.z.z.z.z.B * : z 0 0 9 9 8 3 1 o O X 9.z.z.z.z.z.z.z.z.",
"z.z.z.z.z.z.z.z.z.z.z.0._ 9 : 3 3 3 : v 0.z.z.z.z.z.z.z.z.z.z.z.",
"z.z.z.z.z.z.z.z.z.z.z.z.H @ @ + + $ @ j z.z.z.z.z.z.z.z.z.z.z.z."
};
