/* XPM */
static char *result[] = {
/* columns rows colors chars-per-pixel */
"32 32 160 2 ",
"   c #5F4B37",
".  c #5F4B3B",
"X  c #704C3E",
"o  c #654D42",
"O  c #724E41",
"+  c #7C4F46",
"@  c #625243",
"#  c #645348",
"$  c #635A4D",
"%  c #69594B",
"&  c #765140",
"*  c #76544A",
"=  c #7C574E",
"-  c #655E53",
";  c #705B51",
":  c #6E604F",
">  c #676055",
",  c #6A6156",
"<  c #6C655A",
"1  c #6F695E",
"2  c #746456",
"3  c #7B6456",
"4  c #746559",
"5  c #7A665A",
"6  c #736A5C",
"7  c #7A695B",
"8  c #746E61",
"9  c #7A6E62",
"0  c #767165",
"q  c #7A7366",
"w  c #7A7669",
"e  c #7D796C",
"r  c #7F7D71",
"t  c #84453A",
"y  c #884E43",
"u  c #954C44",
"i  c #9A4C45",
"p  c #895349",
"a  c #88594B",
"s  c #915146",
"d  c #9B5046",
"f  c #945449",
"g  c #9B534B",
"h  c #92584F",
"j  c #825C53",
"k  c #8D5D55",
"l  c #9A5650",
"z  c #955C53",
"x  c #9D5C55",
"c  c #A14C46",
"v  c #AB4E4A",
"b  c #A4504B",
"n  c #AD534E",
"m  c #AD5652",
"M  c #A55A55",
"N  c #A95C55",
"B  c #A55F5A",
"V  c #AA5F58",
"C  c #BA5451",
"Z  c #B35955",
"A  c #BC5855",
"S  c #B35D59",
"D  c #BD5C5A",
"F  c #826054",
"G  c #83665C",
"H  c #8D665D",
"J  c #806B5D",
"K  c #8D695F",
"L  c #936057",
"P  c #92645B",
"I  c #9E645D",
"U  c #92695F",
"Y  c #A4625B",
"T  c #AB635C",
"R  c #B3625D",
"E  c #BA615E",
"W  c #826F63",
"Q  c #8C6C64",
"!  c #9D6760",
"~  c #956D63",
"^  c #9D6962",
"/  c #827367",
"(  c #85766B",
")  c #8D736A",
"_  c #827A6E",
"`  c #89796E",
"'  c #94736A",
"]  c #9C726C",
"[  c #827E72",
"{  c #8B7D72",
"}  c #9D7770",
"|  c #947D73",
" . c #9E7C73",
".. c #A46661",
"X. c #AB6662",
"o. c #A56A65",
"O. c #AC6B64",
"+. c #A16F6A",
"@. c #AC6F69",
"#. c #B56662",
"$. c #BC6562",
"%. c #B36A65",
"&. c #BB6A66",
"*. c #B46E69",
"=. c #BD6D6B",
"-. c #A4726A",
";. c #AD726D",
":. c #B2716D",
">. c #B9726E",
",. c #A47771",
"<. c #AC7570",
"1. c #A37B73",
"2. c #A87A72",
"3. c #B37773",
"4. c #BA7572",
"5. c #B57B75",
"6. c #B97E7A",
"7. c #C45654",
"8. c #CC5352",
"9. c #C45C5A",
"0. c #CD5A59",
"q. c #D6575B",
"w. c #DC575A",
"e. c #D35A5C",
"r. c #DC5A5D",
"t. c #C1615E",
"y. c #CC615F",
"u. c #D55F60",
"i. c #DC5E61",
"p. c #E25E61",
"a. c #C26362",
"s. c #CB6363",
"d. c #C36865",
"f. c #C36A68",
"g. c #CD6969",
"h. c #D46263",
"j. c #DB6163",
"k. c #DB6A6B",
"l. c #C4716E",
"z. c #C57F7B",
"x. c #CA7A79",
"c. c #D27271",
"v. c #DE7173",
"b. c #D27E7D",
"n. c #DB7E7E",
"m. c #E66E70",
"M. c #858275",
"N. c #888376",
"B. c #878479",
"V. c #89867A",
"C. c #8C897C",
"Z. c #918277",
"A. c #998076",
"S. c #92847A",
"D. c #908D7F",
"F. c #C1817D",
"G. c #8F8D81",
"H. c #908E81",
"J. c #939186",
"K. c None",
/* pixels */
"K.K.K.K.K.K.K.K.K.K.K.K.c.O.R O.O.%.%.F.K.K.K.K.K.K.K.K.K.K.K.K.",
"K.K.K.K.K.K.K.K.K.K.K.K.R V.V.:.f.) N.O.K.K.K.K.K.K.K.K.K.K.K.K.",
"K.K.K.K.K.K.K.K.K.K.c.t.E V.V.%.t.A.V.&.A Z K.K.K.K.K.K.K.K.K.K.",
"K.K.K.K.K.K.K.K.l.%.Y T R N.V.2.=.Z.V.&.T Y %.R K.K.K.K.K.K.K.K.",
"K.K.K.K.K.K.E 4.T E ,.M.O.C.V.V.C.C.C.@.V.A.$.t.9.O.K.K.K.K.K.K.",
"K.K.K.K.K.#. .P $.( M.M.O.C.C.D.D.D.C.T M.N.Z.=.a ;.%.K.K.K.K.K.",
"K.K.K.K.t.S.^ @.M.M.N.Z.7._ 6 1 6 6 V.T N.M.V.r :.h ` R K.K.K.K.",
"K.K.K.R *.R @.M.M.V._ G 7.  s d f f % I w M.M.r M.;.S >.;.K.K.K.",
"K.K.n.1./ *.B.B.B.8 # u m T G 6 8 Q u.u.M 8 0 [ r r :.4 ,.z.K.K.",
"K.K.x.` X.| G.B.r o n k 6 6 6 6 0 0 ..u.+.#.; e B.r { V { B K.K.",
"K.t.A V D O.G.B.o v 4 4 6 6 6 0 0 Q ! 8 8 9 E ; M.B.;.a.N t.t.T ",
"4. .} ] ] ] d.z i , 6 5 B Y Y B Y s.R V Q 8 w B z f.-. .}  .1.4.",
"O.[ [ [ r r [ p F 7 6 S s.X.O.o.o.O.O.f.h.9 0 ' y [ M.M.M.N.M.3.",
"O.M.%.@.M.M.B.n < ~ T #...8 0 0 0 q q 0 i.H 8 q R q M.M.:.O.` 5.",
"@.M.$.*.M.M.G.u 0 8 ' i...q 0 q w q 0 q i.Q 0 0 o.5 M.N.5.$.O.5.",
"@.N.*.<.B.B.G.u 0 0 q j...w e w w w w w h.q 0 0 o.7 M.M.5.*.A.5.",
"@.C.V.V.V.V.C.u q q w &.o.w w w w w w e s.w 0 0 ..6 B.V.C.C.V.6.",
"*.J.G.G.' ~ E 7.w e e %.o.w e e e e e e h.w 0 1 7.$.P ~ ` C.N.6.",
"x , - < a.1.[ ' ~ e e #.O.w e e e e e e h.w w P U ( ,.h.5 - - ..",
"l x d.a.e.N.M.M.;./ e &.s.O.O.Y o.O.X.$.j.w / Y [ [ ` u.a.f.x I ",
"j.C B.r Y #.B.B.B.>.U e -.:.>.;.;.g.h.:.] Q T [ B.M.=.g [ B.D 9.",
"K.v.Q r ` e. .V.B.V.*.z J q w e e e ] / z #.B.B.B. .e.3 [ | m K.",
"K.K.l [ ^ q.j.d.V.V.M. .R T T T Y T H Y  .V.V.C.S.j.7.k B...K.K.",
"K.K.n...3.f.i.j.{ C.N.M.] :.2.A.} 1.%.o.M.V.C.{ u.0.G f.Y #.K.K.",
"K.K.K.a.e B.{ s.p.$.| C.@.N.N.N.N.M.M.O.V.A.$.r.9.( r w C K.K.K.",
"K.K.K.K.j [ B.S.s.r.i.E %.V.C.,.-.Z.N.%.E r.r.t./ ( w = b.K.K.K.",
"K.K.K.K.D j [ S.*.,.0.w.9.C.C.:.E A.N.g.r.0.o.:.( [ j c K.K.K.K.",
"K.K.K.K.K.k.k R [ M.M.] %.C.C.2.F.A.C.*.U N.V.( k + s.K.K.K.K.K.",
"K.K.K.K.K.K.K.8.* , < q Y B.M.e w e [ Y , 4 . X 8.K.K.K.K.K.K.K.",
"K.K.K.K.K.K.K.K.p.x O $ g < < , > > > z   & t k.K.K.K.K.K.K.K.K.",
"K.K.K.K.K.K.K.K.K.K.K.m.t., $ $ - - > m m.h.K.K.K.K.K.K.K.K.K.K.",
"K.K.K.K.K.K.K.K.K.K.K.K.9.i i u u d i b K.K.K.K.K.K.K.K.K.K.K.K."
};
