/* XPM */
static char *result[] = {
/* columns rows colors chars-per-pixel */
"32 32 170 2 ",
"   c #5F4B37",
".  c #5F4B3B",
"X  c #356271",
"o  c #3E6875",
"O  c #57534A",
"+  c #59574F",
"@  c #4A5C5B",
"#  c #515550",
"$  c #635A4D",
"%  c #69594B",
"&  c #625442",
"*  c #655E53",
"=  c #5C625E",
"-  c #6E604F",
";  c #676055",
":  c #696157",
">  c #66655C",
",  c #6C655A",
"<  c #6C695E",
"1  c #726A5C",
"2  c #78695B",
"3  c #4E6265",
"4  c #4B686E",
"5  c #42646D",
"6  c #5F716F",
"7  c #4E6D72",
"8  c #406D7A",
"9  c #486E78",
"0  c #49707A",
"q  c #547176",
"w  c #5F7A7E",
"e  c #5B7374",
"r  c #646B65",
"t  c #6A6B63",
"y  c #746E61",
"u  c #6D726B",
"i  c #767165",
"p  c #797366",
"a  c #72756D",
"s  c #7A7669",
"d  c #76786F",
"f  c #7D796C",
"g  c #6C7670",
"h  c #6E7A76",
"j  c #607C7F",
"k  c #717B77",
"l  c #7B7D74",
"z  c #727E7A",
"x  c #827B6F",
"c  c #817E72",
"v  c #75827E",
"b  c #7C827A",
"n  c #858275",
"m  c #898477",
"M  c #878479",
"N  c #89867A",
"B  c #8C897C",
"V  c #908D7F",
"C  c #2C728B",
"Z  c #377183",
"A  c #3C7385",
"S  c #32768D",
"D  c #3D7789",
"F  c #3E788A",
"G  c #277592",
"H  c #297691",
"J  c #237C9D",
"K  c #307790",
"L  c #327993",
"P  c #3D7D92",
"I  c #347D98",
"U  c #437482",
"Y  c #4E7681",
"T  c #4F7D87",
"R  c #43798B",
"E  c #537A83",
"W  c #5C7F86",
"Q  c #527D89",
"!  c #667E80",
"~  c #2F819F",
"^  c #34829D",
"/  c #39839C",
"(  c #1D82A9",
")  c #1688B5",
"_  c #1C8BB5",
"`  c #158DBD",
"'  c #1D8EBA",
"]  c #1D91BF",
"[  c #2185AB",
"{  c #2C87A9",
"}  c #278AAE",
"|  c #2D89AB",
" . c #2D84A6",
".. c #3384A1",
"X. c #3A86A1",
"o. c #3589A6",
"O. c #3C89A4",
"+. c #348BAB",
"@. c #3A8DAA",
"#. c #3990AF",
"$. c #248CB4",
"%. c #2B8DB3",
"&. c #228FB8",
"*. c #338FB1",
"=. c #2690B7",
"-. c #2C90B6",
";. c #2492BC",
":. c #2A93BA",
">. c #3391B3",
",. c #3A92B3",
"<. c #3396BC",
"1. c #54838F",
"2. c #59838C",
"3. c #448194",
"4. c #4C8494",
"5. c #408398",
"6. c #4C8799",
"7. c #45899F",
"8. c #558694",
"9. c #5A8B96",
"0. c #538C9D",
"q. c #5C8C99",
"w. c #668082",
"e. c #6A8689",
"r. c #6D898D",
"t. c #738684",
"y. c #7B8783",
"u. c #748886",
"i. c #7B8A86",
"p. c #768B8C",
"a. c #618B94",
"s. c #618D99",
"d. c #428BA4",
"f. c #428FA9",
"g. c #4B8EA3",
"h. c #4392AD",
"j. c #4993AB",
"k. c #5490A1",
"l. c #5095AA",
"z. c #4596B1",
"x. c #4998B4",
"c. c #409BBF",
"v. c #499CBA",
"b. c #549AB4",
"n. c #0E8EC2",
"m. c #128FC3",
"M. c #0E90C5",
"N. c #0D96CE",
"B. c #0E98CF",
"V. c #1394C6",
"C. c #1E95C4",
"Z. c #1496CA",
"A. c #1399CE",
"S. c #1C9BCC",
"D. c #0B97D0",
"F. c #0798D4",
"G. c #0B9AD3",
"H. c #1199D1",
"J. c #1A9FD5",
"K. c #2295C2",
"L. c #2D9AC6",
"P. c #299ECD",
"I. c #36A2CD",
"U. c #3EA1C8",
"Y. c #26ABE1",
"T. c #409FC4",
"R. c #8F8D81",
"E. c #908E81",
"W. c #939186",
"Q. c None",
/* pixels */
"Q.Q.Q.Q.Q.Q.Q.Q.Q.Q.Q.Q.L.@.O.O.d.@.@.v.Q.Q.Q.Q.Q.Q.Q.Q.Q.Q.Q.Q.",
"Q.Q.Q.Q.Q.Q.Q.Q.Q.Q.Q.Q.{ m N @.:.w.N / Q.Q.Q.Q.Q.Q.Q.Q.Q.Q.Q.Q.",
"Q.Q.Q.Q.Q.Q.Q.Q.Q.Q.L.' %.m N >.:.r.N :._ } H Q.Q.Q.Q.Q.Q.Q.Q.Q.",
"Q.Q.Q.Q.Q.Q.Q.Q.<.>.3.o.| N N k.:.u.N >...5.>.| Q.Q.Q.Q.Q.Q.Q.Q.",
"Q.Q.Q.Q.Q.Q.%.,.+.} 0.n / B N N B B B O.m k.=.;.' 6.Q.Q.Q.Q.Q.Q.",
"Q.Q.Q.Q.Q.%.s.E =.h n n d.B B V V V B / b m v -.7 @.+.Q.Q.Q.Q.Q.",
"Q.Q.Q.Q.] p.3.d.n n m b ] b 1 < < 1 M O.N n n n h.U t.} Q.Q.Q.Q.",
"Q.Q.Q.o.@.%.d.n n n n q `   Z S K Z % ^ f n n b n h.} >.g.Q.Q.Q.",
"Q.Q.U.0.a @.M M M y + H ( ^ e 1 y ! H.D.I t p c l x ,., 0.b.Q.Q.",
"Q.Q.T.z +.i.N N c O ( R 1 1 1 y y i X.A.d.&.> f M c z | v / Q.Q.",
"Q.&._ ^ ' O.R.N # ( < , < y y p y ! R a y u $.= n M @.K.I ' *...",
"h.q.9.8.8.6.C.F G < 1 r ..~ ~ / X.V.} o.Y i k I D K.6.q.q.q.q.z.",
"O.n n l c c n o q 6 t $.V.o.o.O.O.+.@.;.G.u i W 8 m c c n m m h.",
"O.n @.d.n c N ( , E +.$./ i p i y p p p G.E i i } p c m h.o.b z.",
"O.M %.*.M n R.C i y 1.G./ i i i s p p p G.E i i O.2 c m z.:.X.z.",
"d.N ,.f.M M B C i i u G.O.s f s s s s p H.u i i O.2 M m h.+.R.z.",
"O.B B N N M N C i s p =.O.p p f s s s f A.s i i X.2 n N B B N z.",
"f.W.R.R.w.Q =.` f f f -.O.s f s f f f f A.s i < ` ;.T Q z V m x.",
"I , , ; =.q.b 2.3.f f -.O.s f f f f f f A.s p 3.E l g.A.r : : X.",
"H P ;.] A.i.n n h.g f -.Z.o.+.X.O.o.o.=.G.s u / f n z N.;.K.P I ",
"S.) M f ^ } m M M >.E x d.@.,.f.h.C.B.#.2.E | c n n -.S l M ' ' ",
"Q.P.w c v B.s.N M M *.R g s s f f s 0.h U *.n M m s.N.r c e. .Q.",
"Q.Q.L c 4.D.G.;.N N M a.} X.X./ / ..E / a.N N N i.G.m.U N / Q.Q.",
"Q.Q.I.X.z.:.G.G.v B n n 8.f.s.a.a.9.>.4.M N B t.H.N.u K./ +.Q.Q.",
"Q.Q.Q.K.f n t.V.F.K.e.B d.N m m n M n O.N r.;.G.V.k x s ) Q.Q.Q.",
"Q.Q.Q.Y.7 c M R.C.F.G.$.o.N N 0.7.t.m @.=.G.F.] h x s 4 T.Q.Q.Q.",
"Q.Q.Q.Q._ 9 l y.#.0.V.F.C.B N f.-.u.N C.F.V.4.,.k f 9 J Q.Q.Q.Q.",
"Q.Q.Q.Q.Q.J.Y $.l M b 8.o.V V 0.l.u.N #.T b N d 0 5 K.Q.Q.Q.Q.Q.",
"Q.Q.Q.Q.Q.Q.Q.M.3 * < p / m c l x f n / : 2 & @ n.Q.Q.Q.Q.Q.Q.Q.",
"Q.Q.Q.Q.Q.Q.Q.Q.G.R @ $ K , , : : ; ; L . @ X Z.Q.Q.Q.Q.Q.Q.Q.Q.",
"Q.Q.Q.Q.Q.Q.Q.Q.Q.Q.H.J.&.: $ $ ; ; ; [ J.K.Q.Q.Q.Q.Q.Q.Q.Q.Q.Q.",
"Q.Q.Q.Q.Q.Q.Q.Q.Q.Q.Q.Q.$.H G C C G C J Q.Q.Q.Q.Q.Q.Q.Q.Q.Q.Q.Q."
};
