/* XPM */
static char *result[] = {
/* columns rows colors chars-per-pixel */
"32 32 53 1 ",
"  c #4F2913",
". c #512A13",
"X c #56331A",
"o c #5A341B",
"O c #5D381E",
"+ c #573520",
"@ c #5D3B22",
"# c #613E23",
"$ c #5F412B",
"% c #634126",
"& c #64442A",
"* c #69462A",
"= c #66492D",
"- c #6A4A2E",
"; c #664630",
": c #654933",
"> c #6B4D32",
", c #714F32",
"< c #6E5334",
"1 c #6F5138",
"2 c #725435",
"3 c #725837",
"4 c #745539",
"5 c #75593A",
"6 c #7A5D3D",
"7 c #7C603F",
"8 c #6C5642",
"9 c #7B5F40",
"0 c #705E4A",
"q c #7E6342",
"w c #73624D",
"e c #766551",
"r c #826645",
"t c #846846",
"y c #846748",
"u c #866C4A",
"i c #886E4C",
"p c #8A714E",
"a c #846D57",
"s c #8D7451",
"d c #8F7854",
"f c #87735C",
"g c #927B57",
"h c #947E5A",
"j c #897661",
"k c #8A7863",
"l c #96815D",
"z c #98835E",
"x c #9A8561",
"c c #9D8862",
"v c #9E8F7B",
"b c #9A8F80",
"n c #999081",
/* pixels */
"X>>:@*-:,*,,,,,-----*--*-**O::,@",
"ovjj*iiiiiiiitpsppppiiipupu,ffv@",
"oa45,222,tttttituuutttr432,,22aO",
"@qyyo---**%*****-****%#---*XyyqO",
"Ohtuoyr976o,,6,654442#5rr7tXytdO",
"#huuoouurtt*tttttttr*iiupioottd@",
"%huiO2##tsit,,277522piit##6Ouug@",
"%hiu#56r#tstii,25,pppit#666#pug#",
"#hpp%7rtt,6siss666isg6,yrrr#sih#",
"#lpp%7tiii,7hhssir6g6,uuyyi#siz#",
"#lpp#rtiiii7**hssiy*riuuyuu#ssz#",
"%lss#tttiii,rr*hhsir4iiuiyu*ssz#",
"#lss#3666**siizoociiu--9996#ssx#",
"#lssO263,issss#rr#ssuuu>596#spx#",
"#lssO-,2iissi#rrrr#iuiur,42Opsx#",
"Olsso,2tts66,rrrrrr,44uq9,,ossz@",
"@hssX6tti2-*ttttryyy-*4uqq7ossho",
"o4ssX#%**O***---*--***O*###osi4o",
"ok11667tttttttuuiyyyutrrq77611k.",
"Xnvv*lzzzzzczcczcccczzzzzhg*bbb.",
"Xww:*777rrrrtqtttttytyttqtq*>ee.",
".@&6%%*=*-*--=->,*->-----*=*r&#.",
" 666 $<<25*O&<<<,2,=O&3<->@.999 ",
" 666 <OO%337&&@<,#**33<$o$: 669 ",
" 355 <<:=@%%337<<3=<#%O=&>> 733 ",
" 555 <<===&&@3<33q7@&$==&<> <<3 ",
" 333 >>=$@<<3<=@$=37<3@$=>> 3<< ",
" 333 $$@>3<=@@$<<$@@=33>$$& <3< ",
" <<< ==<<$@@======>$@@=<<<= <<< ",
" $$<o$#$@@@%%%&$$%@%@%@$$$$@<$$ ",
" 08$=<<<<3<3<<<33<33<<<33<<=$30.",
".XXO XXXXXXXXXXXXXXXXXXXXXX $+X."
};
