/* XPM */
static char *result[] = {
/* columns rows colors chars-per-pixel */
"32 32 50 1 ",
"  c black",
". c #4F2913",
"X c #512A13",
"o c #56321A",
"O c #5A341B",
"+ c #5D391F",
"@ c #5D3C21",
"# c #623E23",
"$ c #5E412C",
"% c #644126",
"& c #64452A",
"* c #68472B",
"= c #664A2E",
"- c #6A4A2E",
"; c #654630",
": c #654933",
"> c #6A4D32",
", c #6D5233",
"< c #715536",
"1 c #725837",
"2 c #735638",
"3 c #745A3B",
"4 c #795D3D",
"5 c #7B603F",
"6 c #775D45",
"7 c #7A5F42",
"8 c #725F4C",
"9 c #795F48",
"0 c #7D6242",
"q c #73624D",
"w c #7C624C",
"e c #766550",
"r c #816645",
"t c #836946",
"y c #846748",
"u c #866B4A",
"i c #886D4B",
"p c #8B714E",
"a c #8D7451",
"s c #917752",
"d c #917A56",
"f c #947E5A",
"g c #96815D",
"h c #98835E",
"j c #9A8561",
"k c #9D8862",
"l c #968874",
"z c #9E8F7B",
"x c #9A8F80",
"c c #999081",
/* pixels */
"ow99+<<222222222222222<<<<<#699@",
"Oz=:ipaasssfffffdddddssssaai&#z@",
"+;yrooooo><2244254422<-ooooO9r:#",
"+fyrO40rrO oO OOOO   OO 07  rrs@",
"#fuuO  0r  0r    rrr # y  ioyusO",
"#fui  i   u#ryyyyy r-i   pOOyyd#",
"#gii <OO i   #  45   iidOO4+utd#",
"$fii#3  -3ai  3< 4ppp 3 4  #iid#",
"#dpp%   i  jpsa   i j   uu %apf#",
"#gpp#riiii  h  aa >  iuyu  %pph%",
"%gpp# ui  i OO  p  Oi  uuyu%apf%",
"%gpa#  iiii pp hha p  iu i  ash#",
"#gps#1 44- pp hO  pii* 0 77 aaj#",
"#gps+<44*  pp  rr j i  -   #aaj#",
"@gps  -3  d  -r  0  a u02> Oaaj@",
"+gspO  uu   uyy yyyyOoa  r0oaaf+",
"+fsaO4    4  u uyu y05   r  aafo",
"o&aaOoO+ ++# # %#  #  ++O  opa;o",
"Ol:;iuppssssssssssssssspiiui;;lX",
"occz%ggghhhhjkhkkkkkhhhhkfd*xxcX",
"oq8:%500rrr0y0yryrtyrrtr0r0*>eeX",
"X@&4%&***--*---------->--***0%&X",
"X444X   <3 +& >    -+&3   @.547X",
"X344X @@ 2   -@,<@&&  , + -.433.",
".334.,>  @%%3 0  1  $ +*=  .111.",
"X111  ,  :   > 32 0 + = &,,.<,2.",
".1<1X>  =.0 < 1.  130  : >  11,.",
".111  :@ 3,,$  >>  %113&+  .,1,.",
".>,,   ,  $  =,  >=$  , 1&&.,,,.",
".$,> @  @ +o+   @   @o.   @ ,>@.",
".8:@112111333333334333134333$:q.",
".$$;.@@@@@@@@@@@@@@@@@@@@@+.:$$."
};
