/* XPM */
static char *result[] = {
/* columns rows colors chars-per-pixel */
"32 32 50 1 ",
"  c black",
". c #4F2913",
"X c #512A13",
"o c #56331B",
"O c #5A341B",
"+ c #5D391F",
"@ c #5D3C22",
"# c #623E23",
"$ c #5E412C",
"% c #644126",
"& c #64452A",
"* c #68472B",
"= c #66492D",
"- c #6A4A2E",
"; c #654630",
": c #654933",
"> c #6B4E32",
", c #6D5233",
"< c #715536",
"1 c #725837",
"2 c #735638",
"3 c #745A3B",
"4 c #795D3D",
"5 c #7B603F",
"6 c #775D45",
"7 c #7A5F41",
"8 c #725F4C",
"9 c #795F48",
"0 c #7D6242",
"q c #73624D",
"w c #7C624C",
"e c #766550",
"r c #816544",
"t c #836946",
"y c #846748",
"u c #866B4A",
"i c #886D4C",
"p c #8B714E",
"a c #8D7451",
"s c #917752",
"d c #917A56",
"f c #947E5A",
"g c #96815D",
"h c #98835E",
"j c #9A8561",
"k c #9D8862",
"l c #968874",
"z c #9E8F7B",
"x c #9A8F80",
"c c #999081",
/* pixels */
"ow96@<<<<<<224222222<<2<<<>#6yw#",
"Oz=:iaasssddddfffssfdsssssaa##x@",
"+;rtoOooX<<<24424442<,-OOoXX9y;#",
"+frtO47rrOOOOOOOOOOOOOOrr44OrydO",
"#fuuOyr7rr+r00rr5rr55#yrr0uoyrs@",
"#fuuOOuuryy#rrryyryy-pyypiOOyys#",
"#fiiO<++syiy##3445-#iiysOO3#uyd#",
"%fii#244-2siia4< 4isps4-344#iud#",
"#fpp%ryiiiOjaaa   i f+uuuui#aif#",
"#gpp#ryiiiiOh  as -  iiyuua#aaf#",
"%fpp#5yiiii O+  a  +piuuuuu#aaf#",
"%gaa#5iiiip pa hha a,iiyuuu#aaj*",
"%gap%1444**pp h+  piu;-r474#aaf#",
"#fsp+<33-ipss  rr j iiu;r74#aak#",
"+fpsO**4iiss4-r  r  iirr,--+aaj#",
"#gpsO4tuyp+Oyyy yyyyOOa7rr9Oaaf@",
"+fasO4ttsO55yyruyuyy45Os5r4oiifO",
"O&asOoO+++++###%######++OoOOsa;o",
"Ol;*iuppssssssssssssssspiiiy;-lX",
"oxcc%fghhfhhkkkkkkkkhhhhhfd*xxxX",
"oe8;%450rrrrrrttyrrtrttt0rr&:eeX",
".@=4&&****---**--->------**&r&#X",
".434X@>,<3*O&,>,<><*+&3,>-+.446X",
".443.>#@#<26=*@,<@%&3<,@+@>.443X",
".333.,,==$$@3 0  1  $@+=&,>.111.",
".313.,,===++ , 33 0 +@==&>>.111.",
".113.,>&=.051 3.  3300.$=,>.1,,.",
".<1,.=:+$1,1$  ,,  $115&+=>.,1,.",
".=1,.$@,=>@o$=>  ==$ $1,1$$.,,,.",
".$>,.@@@$.o@++++@+@oooX@@@@.>,$.",
".8:@,11311115133333411115111@:q.",
".$$:.@@+++$@+$@+$@@@@@$@@@$.:$$."
};
