/* XPM */
static char *result[] = {
/* columns rows colors chars-per-pixel */
"32 32 51 1 ",
"  c black",
". c #4F2913",
"X c #512A13",
"o c #56321A",
"O c #5A341B",
"+ c #5D391F",
"@ c #5D3C22",
"# c #623D23",
"$ c #5E412C",
"% c #644126",
"& c #64452A",
"* c #68472B",
"= c #66492D",
"- c #6A4A2E",
"; c #654630",
": c #654933",
"> c #6B4E32",
", c #6D5233",
"< c #715536",
"1 c #725837",
"2 c #735638",
"3 c #745A3B",
"4 c #795D3D",
"5 c #7B603F",
"6 c #775D45",
"7 c #7A5F41",
"8 c #725F4C",
"9 c #795F48",
"0 c #7E6242",
"q c #73624D",
"w c #7C624C",
"e c #766550",
"r c #816645",
"t c #836946",
"y c #846748",
"u c #866B4A",
"i c #886D4B",
"p c #8B714E",
"a c #8D7451",
"s c #8F7855",
"d c #917752",
"f c #917A56",
"g c #947E5A",
"h c #96815D",
"j c #98835E",
"k c #9A8561",
"l c #9D8862",
"z c #968874",
"x c #9E8F7B",
"c c #9A8F80",
"v c #999081",
/* pixels */
"ow99+<<22<<222422222<<2<<<<#69w#",
"Ox=:ipaaddfffgfffffffddddaii&#x@",
"+;yrooooO-<244245442<<-ooooO9r:#",
"+gyrO40rrOOOO OOOO  OOO0r42Orrd@",
"#guuOur77r#7r    rrr5#yrr0ioyya+",
"#guiOOiuruy#ryyyyr r*iuupiOOyyd#",
"#huiO<OOdu   #  55   iifOO3#utf#",
"%fii#24r-3ai  4, 4ppp 2 344@pif#",
"%fpp%rtii  lppd   i k   uui#aag#",
"#hpp%rtiii  j  da >  iiyuui*ppg#",
"%hpp#5ti  p +O  p  Oi  uuuu#dag#",
"%haa#5itiii pp jja p  iiuuu#adl#",
"%haa#1445- pp j+  pii; 04r4#aag#",
"#faa+<44-  pp  rr k i  -474#aal#",
"@hpdO*-4  f  -r  0  p rr<->+aag#",
"+haaO4tti +Ouyy yyyyOOp7rr9oasg@",
"OgaaO4rupO54yu uyu y54Od054OiagO",
"O%ddOOO++#+#+# %#  ####OOoOodi;o",
"@z:;uuppdpddddddddddddpppiuu;;zX",
"ocvx%gjjjjjjlljllllljljjjgg*cccX",
"o8q:&455rrrry0ytyrtyrrrr0rr*:qeX",
".@*3%&***--*--*----------**&r*#X",
"X343X@<><4*O& >    -+&3,--@X307X",
"X444X>@@@22  -@,<@&&  ,%+@>X334.",
"X333.,,;=+$&1 0  <  $ +==>>.111.",
"X131.,,==>   > 31 0 + = =>,.1,1.",
".111.>>==.0 1 1.  110  ==>>.,1,.",
".11<.>>o$1,1$  >>  &111&o>>.11,.",
".>,,.@$,=,$  --  >=$  1,5$$.,,,.",
".$,,.@@@$.ooo   @   ooX$+@@.>,$.",
".8:@,1<111515315333313111331$:8.",
".$$:.@@@+@@++$@+$@@@@@@@@$@.$$$."
};
