/* XPM */
static char *result[] = {
/* columns rows colors chars-per-pixel */
"32 32 61 1 ",
"  c #4F2913",
". c #522B14",
"X c #563119",
"o c #5B351C",
"O c #5D381F",
"+ c #613A1D",
"@ c #553622",
"# c #583720",
"$ c #5D3B22",
"% c #573D2A",
"& c #5A3D29",
"* c #613D23",
"= c #5B402C",
"- c #5A4432",
"; c #624126",
": c #684427",
"> c #64452B",
", c #68462A",
"< c #664A2D",
"1 c #6B4A2D",
"2 c #614531",
"3 c #634934",
"4 c #6C4E32",
"5 c #634E3A",
"6 c #684E3A",
"7 c #704F32",
"8 c #6C5033",
"9 c #65503E",
"0 c #6E523A",
"q c #735436",
"w c #735638",
"e c #765A3B",
"r c #795D3E",
"t c #685442",
"y c #6B5846",
"u c #6E5D4A",
"i c #705C47",
"p c #7A5E41",
"a c #705D48",
"s c #7D6243",
"d c #73614D",
"f c #786652",
"g c #7C6852",
"h c #7C6D5B",
"j c #816344",
"k c #816749",
"l c #846B4B",
"z c #896E4E",
"x c #886F50",
"c c #826A5A",
"v c #8C7454",
"b c #83725E",
"n c #8F7758",
"m c #907856",
"M c #947C5B",
"N c #857561",
"B c #8B7B66",
"V c #978164",
"C c #9B8564",
"Z c #9E8768",
"A c None",
/* pixels */
"AA4vs4AAAAAAAAAAAAAAAAAAAsll7AAA",
"A1mll;AAAAAAAAAAAAAAAAAAAwmvv7AA",
"A1nll;AAAAAAAAAAAAAAAAAAAwMmn7AA",
"1mvvs;AAAAAAAAAAAAAAAAAAAwmMnm1A",
">Vnn4;AAAAAAAAAAAAAAAAAAAwsZMM1A",
">Vvn8$AAAAAAAAAAAAAAAAAAAqjZMM,A",
"Vnvs4;AAAAAAAAAAAAAAAAAAAwjvCMM:",
"Vnv84*AAAAAAAAAAAAAAAAAAAwjjZMM*",
"Vxv4*OAAAAAAAAAAAAAAAAAAAwejZnn+",
"pqq.9.AAAAAAAAAAAAAAAAAAA:c1jew+",
"Nbbt.*AAAAAAAAAAAAAAAAAAA7+NBBB+",
"ddd#$$AAAAAAAAAAAAAAAAAAA717gggo",
"X..18$AAAAAAAAAAAAAAAAAAA7jq++oo",
"rww<<$AAAAAAAAAAAAAAAAAAA7jjzppX",
"kss,,% AAAAAAAAAAAAAAAAA+0jrvkkX",
"kre,<@ AAAAAAAAAAAAAAAAAo4rrvjpX",
"lee,>@.AAAAAAAAAAAAAAAAAo4rrvsr.",
"see;;oAAAAAAAAAAAAAAAAAAA:wqzrp.",
"sre=;oAAAAAAAAAAAAAAAAAAA:qqxrp.",
"sew;=oAAAAAAAAAAAAAAAAAAA*,qlew.",
"swwo%XAAAAAAAAAAAAAAAAAAAXdolww ",
"OXo - AAAAAAAAAAAAAAAAAAAOof    ",
"fff5.OAAAAAAAAAAAAAAAAAAA>O<fff ",
"uuu $@ AAAAAAAAAAAAAAAAA.%1Xudu ",
"OOOOX= AAAAAAAAAAAAAAAAA 3$,*$O.",
"pwwO =AAAAAAAAAAAAAAAAAAA- 1sww ",
"sww 9@AAAAAAAAAAAAAAAAAAA=h.s0q ",
"-3-=-@AAAAAAAAAAAAAAAAAAAcd92<- ",
"dyy--AAAAAAAAAAAAAAAAAAAAAuhttt ",
"dyy- AAAAAAAAAAAAAAAAAAAAA httt ",
"dyy- AAAAAAAAAAAAAAAAAAAAA httt ",
"    AAAAAAAAAAAAAAAAAAAAAAA     "
};
