/* XPM */
static char *result[] = {
/* columns rows colors chars-per-pixel */
"32 32 61 1 ",
"  c #4D2712",
". c #4E2812",
"X c #522C14",
"o c #532F18",
"O c #553119",
"+ c #5A361C",
"@ c #5F391D",
"# c #613B1F",
"$ c #5C3B24",
"% c #5C3F29",
"& c #623E23",
"* c #5D412C",
"= c #634226",
"- c #65452A",
"; c #68462A",
": c #67482C",
"> c #6A4A2D",
", c #624631",
"< c #654B35",
"1 c #6C4E31",
"2 c #654E3C",
"3 c #694E39",
"4 c #704F32",
"5 c #6E5134",
"6 c #66523F",
"7 c #6C523C",
"8 c #715536",
"9 c #725739",
"0 c #755A3A",
"q c #795E3E",
"w c #7B603F",
"e c #6A5642",
"r c #6C5A46",
"t c #6D5C48",
"y c #715741",
"u c #735B44",
"i c #7A5F40",
"p c #715E48",
"a c #7D6241",
"s c #74624C",
"d c #7B614A",
"f c #756551",
"g c #786751",
"h c #7B6A54",
"j c #806545",
"k c #836947",
"l c #846B4B",
"z c #886F4E",
"x c #866E50",
"c c #8D7454",
"v c #82725E",
"b c #907756",
"n c #92795A",
"m c #857663",
"M c #867966",
"N c #897A66",
"B c #8C7F6C",
"V c #8E806B",
"C c #9B8566",
"Z c #948776",
"A c None",
/* pixels */
"AAAAAAAAAAAqwqq#qqqqAAAAAAAAAAAA",
"AAAAA8qbbb#nbbz#cccz@qwi44AAAAAA",
"AAA;k8CCCC#000j#qqqa#bbbc;4&AAAA",
"AA0zb80zjj#qw0j&qqaa&;4aq8j4;AAA",
"A;ln0;zjja;jiaj=qwaw;kwwa5al8$AA",
";lj0q4kjjj;qaia;waaa;awai8iwaa+A",
"ic0qq8jjjj>aiaj;aaaa;aawa8qwix1+",
"z00008jjjj;aqij;jaaa4wwaa9aqqqcO",
"9y0009aj&k1iiia>kaaa>a=wa5qqqqqX",
"44y99iuuNi;iiia>kaaw;dvuu777933X",
"uupddhhhxhy4iii>kaw8ughggpsss7rX",
"XXXoXXXXhX4iiia-kajw>ogoooXXXXXX",
"11>48;89$11i0ia>laaa>8$58555111X",
"999001wwi11iiia>zaaa>awww988999X",
"9999980qi>1i00a-kaaa>awww899999X",
"9999980q0i100ia-zwaw>ww0w899595X",
"8999980000100;1*8>ww1wq0w888885X",
"888998099910;VVVnV>w5a0qq885555X",
"889899999910;ss*ss>w1a000555875.",
"898998898919=sw.pu=01a000555555X",
"89888889;519:***%*>9>w>q0155555.",
"1<777r9yca-9951@8180;pvy77373<<.",
"e9rppfsgggM$899=890@Bssssttut77.",
"****-,,,g,+9898*9988+,s,,-**-%*.",
"#====*;> -=9979=9558&1.--*=*#== ",
"51515-5518&9887+9857&0300>111>> ",
"55555-5818$e858O5555%0ty0>1111>.",
":<<7<6753222<33.6633336t<<<<,,,.",
"VhVhMMMMhZBBVZZ.ZZVVBhhhBhMhMmm ",
"66e6666rrrttttf.stttttfftee2222 ",
"662666errtttttf.ftttttrereee222 ",
"%%$*****%%%%%%,.,***%%%%%%%%%$$ "
};
