/* XPM */
static char *result[] = {
/* columns rows colors chars-per-pixel */
"32 32 76 1 ",
"  c #7D4419",
". c #7E4519",
"X c #804719",
"o c #80481A",
"O c #824A1A",
"+ c #844E1A",
"@ c #85501A",
"# c #8C571C",
"$ c #8D591E",
"% c #8D5A1E",
"& c #8D5B20",
"* c #8F5B20",
"= c #916020",
"- c #936121",
"; c #916221",
": c #956823",
"> c #976A23",
", c #996923",
"< c #9A6C23",
"1 c #9B6D23",
"2 c #9D7225",
"3 c #9E7425",
"4 c #9D7D28",
"5 c #9D7E28",
"6 c #A07426",
"7 c #A07526",
"8 c #A37A28",
"9 c #9E8028",
"0 c #9F8128",
"q c #A1842A",
"w c #A2852A",
"e c #A2852B",
"r c #AB8F2D",
"t c #AC902D",
"y c #B0942F",
"u c #B1952F",
"i c #B39730",
"p c #B39830",
"a c #B49830",
"s c #B49930",
"d c #B59930",
"f c #B49932",
"g c #B69B32",
"h c #B89B32",
"j c #B89C32",
"k c #B89D32",
"l c #BBA034",
"z c #BBA134",
"x c #BCA235",
"c c #BDA235",
"v c #BDA335",
"b c #BEA335",
"n c #BFA337",
"m c #C1A637",
"M c #C0A737",
"N c #C1A737",
"B c #C2A737",
"V c #C2A837",
"C c #C3A837",
"Z c #C3A939",
"A c #C4AA39",
"S c #C5AB39",
"D c #C7AC39",
"F c #C6AD39",
"G c #C7AD3A",
"H c #C7AE3A",
"J c #C8AE3A",
"K c #CCB23C",
"L c #D1B83F",
"P c #D2B83F",
"I c #D4BA41",
"U c #D5BB41",
"Y c #D6BB41",
"T c #D7BC42",
"R c #D7BD42",
"E c None",
/* pixels */
"EEEEEEEEEEEEEEEEEEEEEEEEEEEEEEEE",
"EEEEEEEEEEEEEEEEEEEEEEEEEEEEEEEE",
"EEEEEEEEEEEEEEEEEEEEEEEEEEEEEEEE",
"EEEEEEEEEEEEEEEEEEEEEEEEEEEEEEEE",
"EEEEEEEEEEEEEEEEEEEEEEEEEEEEEEEE",
"EEEEEEEEEEEEEEEEEEEEEEEEEEEEEEEE",
"EEEEEEEEEEEEEEEEEEEEEEEEEEEEEEEE",
"EEEEEEEEEEEEEEEEEEEEEEEEEEEEEEEE",
"EEEEEEEEEEEE38EEEEEEEEEEEEEEEEEE",
"EEEEEEEEEEE7cl<<EEEEEEEEEEEEEEEE",
"EEEEEEEEEE6lcvvN11EEEEEEEEEEEEEE",
"EEEEEEEEE2xcvbbNNN-*EEEEEEEEEEEE",
"EEEEEEEE>zcccbMVZZCV%$EEEEEEEEEE",
"EEEEEEE:zzccbMMNNZZVSS=#EEEEEEEE",
"EEEEEEE;HHcnbMmmVZCNGSAA,EEEEEEE",
"EEEEEEE&rrHJMmBNNGFFGGAAUOEEEEEE",
"EEEEEEE+rrrtPLNZHHHHDGSU9XEEEEEE",
"EEEEEEEOrrrrrtYTHHKTTYU54.EEEEEE",
"EEEEEEEEX.rrrrrtYRhjkj044.EEEEEE",
"EEEEEEEEEEXXrrrryaYjjd05@EEEEEEE",
"EEEEEEEEEEEE.orrupsIiq0oEEEEEEEE",
"EEEEEEEEEEEEEE  ifdIee EEEEEEEEE",
"EEEEEEEEEEEEEEEE  gIw EEEEEEEEEE",
"EEEEEEEEEEEEEEEEEE   EEEEEEEEEEE",
"EEEEEEEEEEEEEEEEEEEEEEEEEEEEEEEE",
"EEEEEEEEEEEEEEEEEEEEEEEEEEEEEEEE",
"EEEEEEEEEEEEEEEEEEEEEEEEEEEEEEEE",
"EEEEEEEEEEEEEEEEEEEEEEEEEEEEEEEE",
"EEEEEEEEEEEEEEEEEEEEEEEEEEEEEEEE",
"EEEEEEEEEEEEEEEEEEEEEEEEEEEEEEEE",
"EEEEEEEEEEEEEEEEEEEEEEEEEEEEEEEE",
"EEEEEEEEEEEEEEEEEEEEEEEEEEEEEEEE"
};
