/* XPM */
static char *result[] = {
/* columns rows colors chars-per-pixel */
"32 32 3 1 ",
"  c #FAFF8F",
". c white",
"X c None",
/* pixels */
"XXXXXXXXXXXXXXXXXXXXXXXXXXXXXXXX",
"XXXXXXXXXXXXXXXXXXXXXXXXXXXXXXXX",
"XXXXXXXXXXXXXXXXXXXXXXXXXXXXXXXX",
"XXXXXXXXXXXXXXXXXXXXXXXXXXXXXXXX",
"XXXXXXXXXXXXXXXXXXXXXXXXXXXXXXXX",
"XXXXXXXXXXXXXXX  XXXXXXXXXXXXXXX",
"XXXXXX  XXXXXXX  XXXXXXX  XXXXXX",
"XXXXXX  .XXXXXX..XXXXXX.  XXXXXX",
"XXXXXXX...XXXXX..XXXXX...XXXXXXX",
"XXXXXXXX..XXXXXXXXXXXX..XXXXXXXX",
"XXXXXXXXXX..XXX..XXX..XXXXXXXXXX",
"XXXXXXXXXX...XX..XX...XXXXXXXXXX",
"XXXXXXXXXXX..XXXXXX..XXXXXXXXXXX",
"XXXXXXXXXXXXXXXXXXXXXXXXXXXXXXXX",
"XXXXXXXXXXXXXXX..XXXXXXXXXXXXXXX",
"XXXXX  ..X..XX....XX..X..  XXXXX",
"XXXXX  ..X..XX....XX..X..  XXXXX",
"XXXXXXXXXXXXXXX..XXXXXXXXXXXXXXX",
"XXXXXXXXXXXXXXXXXXXXXXXXXXXXXXXX",
"XXXXXXXXXXX..XXXXXX..XXXXXXXXXXX",
"XXXXXXXXXX...XX..XX...XXXXXXXXXX",
"XXXXXXXXXX..XXX..XXX..XXXXXXXXXX",
"XXXXXXXX..XXXXXXXXXXXX..XXXXXXXX",
"XXXXXXX...XXXXX..XXXXX...XXXXXXX",
"XXXXXX  .XXXXXX..XXXXXX.  XXXXXX",
"XXXXXX  XXXXXXX  XXXXXXX  XXXXXX",
"XXXXXXXXXXXXXXX  XXXXXXXXXXXXXXX",
"XXXXXXXXXXXXXXXXXXXXXXXXXXXXXXXX",
"XXXXXXXXXXXXXXXXXXXXXXXXXXXXXXXX",
"XXXXXXXXXXXXXXXXXXXXXXXXXXXXXXXX",
"XXXXXXXXXXXXXXXXXXXXXXXXXXXXXXXX",
"XXXXXXXXXXXXXXXXXXXXXXXXXXXXXXXX"
};
