/* XPM */
static char *result[] = {
/* columns rows colors chars-per-pixel */
"65 64 2 1 ",
"  c white",
". c None",
/* pixels */
".................................................................",
".................................................................",
".................................................................",
".................................................................",
".................................................................",
".................................................................",
".................................................................",
".................................................................",
".................................................................",
".................................................................",
".................................................................",
".................................................................",
"..........................                .......................",
"..........................                .......................",
"..........................                .......................",
"..........................                .......................",
"..........................                .......................",
"..........................                .......................",
"..........................                .......................",
"..........................                .......................",
"..................        ................        ...............",
"..................        ................        ...............",
"..................        ................        ...............",
"..................        ................        ...............",
"..................        ................        ...............",
"..................        ................        ...............",
"..................        ................        ...............",
"..................        ................        ...............",
"..................        ................        ...............",
"..................        ................        ...............",
"..................        ................        ...............",
"..................        ................        ...............",
"..................        ................        ...............",
"..................        ................        ...............",
"..................        ................        ...............",
"..................        ................        ...............",
"..................        ................        ...............",
"..................        ................        ...............",
"..................        ................        ...............",
"..................        ................        ...............",
"..................        ................        ...............",
"..................        ................        ...............",
"..................        ................        ...............",
"..................        ................        ...............",
"..........................                                .......",
"..........................                                .......",
"..........................                                .......",
"..........................                                .......",
"..........................                                .......",
"..........................                                .......",
"..........................                                .......",
"..........................                                .......",
".................................................................",
".................................................................",
".................................................................",
".................................................................",
".................................................................",
".................................................................",
".................................................................",
".................................................................",
".................................................................",
".................................................................",
".................................................................",
"................................................................."
};
