/* XPM */
static char *result[] = {
/* columns rows colors chars-per-pixel */
"64 64 9 1 ",
"  c #101E29",
". c #D17360",
"X c #4B9620",
"o c #EDA579",
"O c #F1F745",
"+ c #BC0D35",
"@ c #DE264C",
"# c #F8F8F8",
"$ c None",
/* pixels */
"$$$$$$$$$$$$$$$$$$$$$$$$$$$$$$$$$$$$$$$$$$$$$$$$$$$$$$$$$$$$$$$$",
"$$$$$$$$$$$$$$$$$$$$$$$$$$$$$$$$$$$$$$$$$$$$$$$$$$$$$$$$$$$$$$$$",
"$$$$$$$$$$$$$$$$$$$$$$$$$$$$$$$$$$$$$$$$$$$$$$$$$$$$$$$$$$$$$$$$",
"$$$$$$$$$$$$$$$$$$$$$$$$$$$$$$$$$$$$$$$$$$$$$$$$$$$$$$$$$$$$$$$$",
"$$$$$$$$$$$$$$$$$$$$$$$$$$$$$$$$$$$$$$$$$$$$$$$$$$$$$$$$$$$$$$$$",
"$$$$$$$$$$$$$$$$$$$$$$$$$$$$$$$$$$$$$$$$$$$$$$$$$$$$$$$$$$$$$$$$",
"$$$$$$$$$$$$$$$$$$$$$$$$$$$$$$$$$$$$$$$$$$$$$$$$$$$$$$$$$$$$$$$$",
"$$$$$$$$$$$$$$$$$$$$$$$$$$$$$$$$$$$$$$$$$$$$$$$$$$$$$$$$$$$$$$$$",
"$$$$$$$$$$$$$$$$$$$$$$$$$$$$$$$$$$$$$$$$$$$$$$$$$$$$$$$$$$$$$$$$",
"$$$$$$$$$$$$$$$$$$$$$$$$$$$$$$$$$$$$$$$$$$$$$$$$$$$$$$$$$$$$$$$$",
"$$$$$$$$$$$$$$$$$$$$$$$$$$$$$$$$$$$$$$$$$$$$$$$$$$$$$$$$$$$$$$$$",
"$$$$$$$$$$$$$$$$$$$$$$$$$$$$$$$$$$$$$$$$$$$$$$$$$$$$$$$$$$$$$$$$",
"$$$$$$$$$$$$$$$$$$$$$$$$$$$$$$$$$$$$$$$$$$$$$$$$$$$$$$$$$$$$$$$$",
"$$$$$$$$$$$$$$$$$$$$$$$$$$$$$$$$$$$$$$$$$$$$$$$$$$$$$$$$$$$$$$$$",
"$$$$$$$$$$$$$$$$$$$$$$$$$$$$$$$$$$$$$$$$$$$$$$$$$$$$$$$$$$$$$$$$",
"$$$$$$$$$$$$$$$$$$$$$$$$$$$$$$$$$$$$$$$$$$$$$$$$$$$$$$$$$$$$$$$$",
"$$$$$$$$$$$$$$$$$$$$$$$$$$$$$$    $$$$$$    $$$$$$$$$$$$$$$$$$$$",
"$$$$$$$$$$$$$$$$$$$$$$$$$$$$$$    $$$$$$    $$$$$$$$$$$$$$$$$$$$",
"$$$$$$$$$$$$$$$$$$$$$$$$$$$$  ####  $$  ####  $$$$$$$$$$$$$$$$$$",
"$$$$$$$$$$$$$$$$$$$$$$$$$$$$  ####  $$  ####  $$$$$$$$$$$$$$$$$$",
"$$$$$$$$$$$$$$$$$$$$$$$$$$  ####      ######  $$$$$$$$$$$$$$$$$$",
"$$$$$$$$$$$$$$$$$$$$$$$$$$  ####      ######  $$$$$$$$$$$$$$$$$$",
"$$$$$$$$$$$$$$$$$$$$$$$$  ##################  $$$$$$$$$$$$$$$$$$",
"$$$$$$$$$$$$$$$$$$$$$$$$  ##################  $$$$$$$$$$$$$$$$$$",
"$$$$$$$$$$$$$$$$$$$$$$  ####################  $$$$$$$$$$$$$$$$$$",
"$$$$$$$$$$$$$$$$$$$$$$  ####################  $$$$$$$$$$$$$$$$$$",
"$$$$$$$$$$$$$$$$$$$$$$  ##oooooooooooo######  $$$$$$$$$$$$$$$$$$",
"$$$$$$$$$$$$$$$$$$$$$$  ##oooooooooooo######  $$$$$$$$$$$$$$$$$$",
"$$$$$$$$$$$$$$$$$$$$$$  oooooooooooooooo####  $$$$$$$$$$$$$$$$$$",
"$$$$$$$$$$$$$$$$$$$$$$  oooooooooooooooo####  $$$$$$$$$$$$$$$$$$",
"$$$$$$$$$$$$$$$$$$$$$$  oooooooooooooooo####  $$$$$$$$$$$$$$$$$$",
"$$$$$$$$$$$$$$$$$$$$$$  oooooooooooooooo####  $$$$$$$$$$$$$$$$$$",
"$$$$$$$$$$$$$$$$$$$$$$  ..  oooooo  ..oo####  $$$$$$$$$$$$$$$$$$",
"$$$$$$$$$$$$$$$$$$$$$$  ..  oooooo  ..oo####  $$$$$$$$$$$$$$$$$$",
"$$$$$$$$$$$$$$$$$$      oooooooooooooooo####  $$$$$$$$$$$$$$$$$$",
"$$$$$$$$$$$$$$$$$$      oooooooooooooooo####  $$$$$$$$$$$$$$$$$$",
"$$$$OOOOOOOOOOOOOOOOOO  ##oooooooooooo######      $$$$$$$$$$$$$$",
"$$$$OOOOOOOOOOOOOOOOOO  ##oooooooooooo######      $$$$$$$$$$$$$$",
"$$OOOOOOOOOOOOOOOOOOOOOOOO##OOOOOO##########        $$$$$$$$$$$$",
"$$OOOOOOOOOOOOOOOOOOOOOOOO##OOOOOO##########        $$$$$$$$$$$$",
"OOOOOOOOOOOOOOOOOOOOOOoo                    oooooo  $$$$$$$$$$$$",
"OOOOOOOOOOOOOOOOOOOOOOoo                    oooooo  $$$$$$$$$$$$",
"OOOOOOOOOOOOOOOOOOOOOOoooooo  XX@@@@@@XX@@@@oooo    $$$$$$$$$$$$",
"OOOOOOOOOOOOOOOOOOOOOOoooooo  XX@@@@@@XX@@@@oooo    $$$$$$$$$$$$",
"$$OOOOOOOOOOOOOOOOOOOOOOOO  OOOOOO@@@@XX@@      XX  $$$$$$$$$$$$",
"$$OOOOOOOOOOOOOOOOOOOOOOOO  OOOOOO@@@@XX@@      XX  $$$$$$$$$$$$",
"$$$$OOOOOOOOOOOOOOOOOO  $$$$  ++++++++++++  XXXX  $$$$$$$$$$$$$$",
"$$$$OOOOOOOOOOOOOOOOOO  $$$$  ++++++++++++  XXXX  $$$$$$$$$$$$$$",
"$$$$$$$$$$$$$$$$$$    $$$$  ++            ++    $$$$$$$$$$$$$$$$",
"$$$$$$$$$$$$$$$$$$    $$$$  ++            ++    $$$$$$$$$$$$$$$$",
"$$$$$$$$$$$$$$$$$$$$$$$$$$  oo  $$$$$$$$$$  oo  $$$$$$$$$$$$$$$$",
"$$$$$$$$$$$$$$$$$$$$$$$$$$  oo  $$$$$$$$$$  oo  $$$$$$$$$$$$$$$$",
"$$$$$$$$$$$$$$$$$$$$$$$$$$$$$$$$$$$$$$$$$$$$$$$$$$$$$$$$$$$$$$$$",
"$$$$$$$$$$$$$$$$$$$$$$$$$$$$$$$$$$$$$$$$$$$$$$$$$$$$$$$$$$$$$$$$",
"$$$$$$$$$$$$$$$$$$$$$$$$$$$$$$$$$$$$$$$$$$$$$$$$$$$$$$$$$$$$$$$$",
"$$$$$$$$$$$$$$$$$$$$$$$$$$$$$$$$$$$$$$$$$$$$$$$$$$$$$$$$$$$$$$$$",
"$$$$$$$$$$$$$$$$$$$$$$$$$$$$$$$$$$$$$$$$$$$$$$$$$$$$$$$$$$$$$$$$",
"$$$$$$$$$$$$$$$$$$$$$$$$$$$$$$$$$$$$$$$$$$$$$$$$$$$$$$$$$$$$$$$$",
"$$$$$$$$$$$$$$$$$$$$$$$$$$$$$$$$$$$$$$$$$$$$$$$$$$$$$$$$$$$$$$$$",
"$$$$$$$$$$$$$$$$$$$$$$$$$$$$$$$$$$$$$$$$$$$$$$$$$$$$$$$$$$$$$$$$",
"$$$$$$$$$$$$$$$$$$$$$$$$$$$$$$$$$$$$$$$$$$$$$$$$$$$$$$$$$$$$$$$$",
"$$$$$$$$$$$$$$$$$$$$$$$$$$$$$$$$$$$$$$$$$$$$$$$$$$$$$$$$$$$$$$$$",
"$$$$$$$$$$$$$$$$$$$$$$$$$$$$$$$$$$$$$$$$$$$$$$$$$$$$$$$$$$$$$$$$",
"$$$$$$$$$$$$$$$$$$$$$$$$$$$$$$$$$$$$$$$$$$$$$$$$$$$$$$$$$$$$$$$$"
};
