/* XPM */
static char *result[] = {
/* columns rows colors chars-per-pixel */
"64 64 2 1 ",
"  c #F8F8F8",
". c None",
/* pixels */
"................................................................",
"................................................................",
"................................................................",
"................................................................",
"................................................................",
"................................................................",
"................................................................",
"................................................................",
"........................  ......................................",
"........................  ......................................",
"................  ......  ......................................",
"................  ......  ......................................",
"..................  ......  ....................................",
"..................  ......  ....................................",
"....................  ....  ....    ......    ..................",
"....................  ....  ....    ......    ..................",
"......................  ......        ..        ................",
"......................  ......        ..        ................",
"..............    ............                  ................",
"..............    ............                  ................",
"..................    ......                      ..............",
"..................    ......                      ..............",
"..........................                        ..............",
"..........................                        ..............",
"..........................                        ..............",
"..........................                        ..............",
"..........................                        ..............",
"..........................                        ..............",
"..........................                        ..............",
"..........................                        ..............",
"..........................                        ..............",
"..........................                        ..............",
"..........................                        ..............",
"..........................                        ..............",
"..........................                        ..............",
"..........................                        ..............",
"..........................                        ..............",
"..........................                        ..............",
"........................                            ............",
"........................                            ............",
"......................                              ............",
"......................                              ............",
"......................                              ............",
"......................                              ............",
"........................                            ............",
"........................                            ............",
"............................                      ..............",
"............................                      ..............",
"............................                    ................",
"............................                    ................",
"............................      ....      ....................",
"............................      ....      ....................",
"................................................................",
"................................................................",
"................................................................",
"................................................................",
"................................................................",
"................................................................",
"................................................................",
"................................................................",
"................................................................",
"................................................................",
"................................................................",
"................................................................"
};
