/* XPM */
static char *result[] = {
/* columns rows colors chars-per-pixel */
"64 64 8 1 ",
"  c #101E29",
". c #4B9620",
"X c #EDA579",
"o c #9AD47D",
"O c #BC0D35",
"+ c #DE264C",
"@ c #F8F8F8",
"# c None",
/* pixels */
"################################################################",
"################################################################",
"################################################################",
"################################################################",
"################################################################",
"################################################################",
"################################################################",
"################################################################",
"################################################################",
"################################################################",
"################################################################",
"################################################################",
"################################################################",
"################################################################",
"################################################################",
"################################################################",
"################################################################",
"################################################################",
"################################################################",
"################################################################",
"################################################################",
"################################################################",
"################################################################",
"################################################################",
"################################################################",
"################################################################",
"################################################################",
"################################################################",
"################################################################",
"################################################################",
"################################################################",
"################################################################",
"################################################################",
"################################################################",
"################################################################",
"################################################################",
"##############    ######    ####################################",
"##############    ######    ####################################",
"############  @@@@      @@@@        ############################",
"############  @@@@      @@@@        ############################",
"##########  @@@@@@@@@@@@@@@@@@  oo..  ##########################",
"##########  @@@@@@@@@@@@@@@@@@  oo..  ##########################",
"########  @@@@@@@@@@@@@@@@@@@@  oo....  ########################",
"########  @@@@@@@@@@@@@@@@@@@@  oo....  ########################",
"########  @@@@@@@@@@@@@@@@@@@@  oo....  ########################",
"########  @@@@@@@@@@@@@@@@@@@@  oo....  ########################",
"########  @@@@@@@@@@@@@@@@@@@@    ++++OO  ######################",
"########  @@@@@@@@@@@@@@@@@@@@    ++++OO  ######################",
"########  @@XXXXXXXXXXXX@@@@@@  XX  ++OO    ####################",
"########  @@XXXXXXXXXXXX@@@@@@  XX  ++OO    ####################",
"########      XXXXXX    XX@@@@  XXXX  OOXX  ####################",
"########      XXXXXX    XX@@@@  XXXX  OOXX  ####################",
"################################################################",
"################################################################",
"################################################################",
"################################################################",
"################################################################",
"################################################################",
"################################################################",
"################################################################",
"################################################################",
"################################################################",
"################################################################",
"################################################################"
};
