/* XPM */
static char *result[] = {
/* columns rows colors chars-per-pixel */
"32 32 63 1 ",
"  c #4D2712",
". c #4E2812",
"X c #502B15",
"o c #532F1A",
"O c #52321D",
"+ c #5B371E",
"@ c #5B381E",
"# c #533420",
"$ c #583622",
"% c #5A3923",
"& c #573D2A",
"* c #5D3E29",
"= c #5F412D",
"- c #574231",
"; c #5B4535",
": c #5C4738",
"> c #5D4939",
", c #61422E",
"< c #614633",
"1 c #644936",
"2 c #634B3A",
"3 c #684E3A",
"4 c #68503F",
"5 c #5C4F43",
"6 c #5E5246",
"7 c #5F5449",
"8 c #635445",
"9 c #62574B",
"0 c #64594E",
"q c #6A584B",
"w c #645D52",
"e c #695E51",
"r c #73604D",
"t c #676055",
"y c #696155",
"u c #676158",
"i c #6B655B",
"p c #6F685E",
"a c #726356",
"s c #726559",
"d c #76695C",
"f c #6F6A61",
"g c #726D64",
"h c #777066",
"j c #797267",
"k c #767269",
"l c #7A756A",
"z c #7E796E",
"x c #7E7A71",
"c c #80796F",
"v c #827D74",
"b c #817F78",
"n c #848277",
"m c #868478",
"M c #89867A",
"N c #8B897C",
"B c #8D8B82",
"V c #918E85",
"C c #939087",
"Z c #95928A",
"A c #99968D",
"S c #9D9991",
"D c None",
/* pixels */
"DDDD,<<<;<<11121222<1<<<1<<,DDDD",
"DDD8BBVNBMnnnnnnnnnnnbnnbmbB3DDD",
"DD4NNBNBMnnnnnnbnnnnnmmnnnnnN3DD",
",aNnbnnvnnnnnnnnnnMMBBBnnnbnnMa<",
",BnnnnnnhhhhjklkkkzzzzljnnnnnbB*",
",Bnnnnnu,,=>>1>12:<<<;<<unnnnnB*",
",Bnmnne*qqaiaaaaiaaaqqqq*unnnnB*",
",Bnnnn$sahhhhjhhhhhhghhaa+mnnbV*",
"<Vnmmn@ajhhhhlhjzljjjjjjj+mnmnC*",
",Vmmmm@aljjhhlllllljjjjjj+mmmmZ*",
",Vmmmm@ljzzjjlzlzzllcjjjj+mmmmZ*",
",Cmmmm@lzzzzzlzzzzlcjjjjj%mmmMZ*",
",Ammmm@czzzzzzvzzczzljljj+MmmmA*",
",AmMMM@czzzzzzzzczczlccjl+NMmmS*",
"*ANNMM1dzzkiillkzvczccccs3NMMmS*",
",ABBMmM1dd0qqqqqddddddad3BVMMMS*",
",SNCMMMNrrrrrrrrrrrrrrrrCNNNNmS,",
"*CANMMMMMMMMMMNMNNMMMNNNNNMMmVc@",
"*lnANMMNMMNMMNNNMMMNNNNNNMMMAgyo",
"@llMAAAAZZZZCCCCCCZZCCCZZZZAhyro",
"%knvpkkfhgppppppdhhjkpdppppplhw.",
"Xnpiipipssppppppppppppippffppin.",
".xiuiii6-->>;;>>;;;;::::8fgiiiz ",
".zuiiiO>60www0wewttwwwwww#piiik ",
".kuiiiO7ww0www00www900wwwOiiiih ",
".kuuuu#777000w0w999w99000Ouuyuk.",
".fttttO7677w9w00990780700Otuuuf.",
" futww->66677099997777775&wttwk.",
" pytwwut>::;>>>;:::::::;0twwwwf.",
" 0iiuu0wtttttiiiuiipptttwwwwwtw.",
"DD-6itw700w0www00wwtwwwwwwwt8&DD",
"DDD >----------------------:.DDD"
};
