/* XPM */
static char *result[] = {
/* columns rows colors chars-per-pixel */
"64 64 11 1 ",
"  c #101E29",
". c #17203F",
"X c #D17360",
"o c #4B9620",
"O c #A99445",
"+ c #EDA579",
"@ c #F5D75D",
"# c #0763D0",
"$ c #038FCD",
"% c #F8F8F8",
"& c None",
/* pixels */
"&&&&&&&&&&&&&&&&&&&&&&&&&&&&&&&&&&&&&&&&&&&&&&&&&&&&&&&&&&&&&&&&",
"&&&&&&&&&&&&&&&&&&&&&&&&&&&&&&&&&&&&&&&&&&&&&&&&&&&&&&&&&&&&&&&&",
"&&&&&&&&&&&&&&&&&&&&&&&&&&&&&&&&&&&&&&&&&&&&&&&&&&&&&&&&&&&&&&&&",
"&&&&&&&&&&&&&&&&&&&&&&&&&&&&&&&&&&&&&&&&&&&&&&&&&&&&&&&&&&&&&&&&",
"&&&&&&&&&&&&&&&&&&&&&&&&&&&&&&&&&&&&&&&&&&&&&&&&&&&&&&&&&&&&&&&&",
"&&&&&&&&&&&&&&&&&&&&&&&&&&&&&&&&&&&&&&&&&&&&&&&&&&&&&&&&&&&&&&&&",
"&&&&&&&&&&&&&&&&&&&&&&&&&&&&&&&&&&&&&&&&&&&&&&&&&&&&&&&&&&&&&&&&",
"&&&&&&&&&&&&&&&&&&&&&&&&&&&&&&&&&&&&&&&&&&&&&&&&&&&&&&&&&&&&&&&&",
"&&&&&&&&&&&&&&&&&&&&&&&&&&&&&&&&&&&&&&&&&&&&&&&&&&&&&&&&&&&&&&&&",
"&&&&&&&&&&&&&&&&&&&&&&&&&&&&&&&&&&&&&&&&&&&&&&&&&&&&&&&&&&&&&&&&",
"&&&&&&&&&&&&&&&&&&&&&&&&&&&&&&&&&&&&&&&&&&&&&&&&&&&&&&&&&&&&&&&&",
"&&&&&&&&&&&&&&&&&&&&&&&&&&&&&&&&&&&&&&&&&&&&&&&&&&&&&&&&&&&&&&&&",
"&&&&&&&&&&&&&&&&&&&&&&&&&&&&&&&&&&&&&&&&&&&&&&&&&&&&&&&&&&&&&&&&",
"&&&&&&&&&&&&&&&&&&&&&&&&&&&&&&&&&&&&&&&&&&&&&&&&&&&&&&&&&&&&&&&&",
"&&&&&&&&&&&&&&&&&&&&&&&&&&&&&&&&&&&&&&&&&&&&&&&&&&&&&&&&&&&&&&&&",
"&&&&&&&&&&&&&&&&&&&&&&&&&&&&&&&&&&&&&&&&&&&&&&&&&&&&&&&&&&&&&&&&",
"&&&&&&&&&&&&&&&&&&&&&&&&&&&&    &&&&&&    &&&&&&&&&&&&&&&&&&&&&&",
"&&&&&&&&&&&&&&&&&&&&&&&&&&&&    &&&&&&    &&&&&&&&&&&&&&&&&&&&&&",
"&&&&&&&&&&&&&&&&&&&&&&&&&&  %%%%  &&  %%%%  &&&&&&&&&&&&&&&&&&&&",
"&&&&&&&&&&&&&&&&&&&&&&&&&&  %%%%  &&  %%%%  &&&&&&&&&&&&&&&&&&&&",
"&&&&&&&&&&&&&&&&&&&&&&&&&&  %%%%      %%%%  &&&&&&&&&&&&&&&&&&&&",
"&&&&&&&&&&&&&&&&&&&&&&&&&&  %%%%      %%%%  &&&&&&&&&&&&&&&&&&&&",
"&&&&&&&&&&&&&&&&&&&&&&&&  %%%%%%%%%%%%%%%%%%  &&&&&&&&&&&&&&&&&&",
"&&&&&&&&&&&&&&&&&&&&&&&&  %%%%%%%%%%%%%%%%%%  &&&&&&&&&&&&&&&&&&",
"&&&&&&&&&&&&&&&&&&&&&&  %%%%%%%%%%%%%%%%%%%%  &&&&&&&&&&&&&&&&&&",
"&&&&&&&&&&&&&&&&&&&&&&  %%%%%%%%%%%%%%%%%%%%  &&&&&&&&&&&&&&&&&&",
"&&&&&&&&&&&&&&&&&&&&&&  %%++++++++++++%%%%%%  &&&&&&&&&&&&&&&&&&",
"&&&&&&&&&&&&&&&&&&&&&&  %%++++++++++++%%%%%%  &&&&&&&&&&&&&&&&&&",
"&&&&&&&&&&&&&&&&&&&&&&  ++++++++++++++++%%%%  &&&&&&&&&&&&&&&&&&",
"&&&&&&&&&&&&&&&&&&&&&&  ++++++++++++++++%%%%  &&&&&&&&&&&&&&&&&&",
"&&&&&&&&&&&&&&&&&&&&&&  ++  ++++++  ++++%%%%  &&&&&&&&&&&&&&&&&&",
"&&&&&&&&&&&&&&&&&&&&&&  ++  ++++++  ++++%%%%  &&&&&&&&&&&&&&&&&&",
"&&&&&&&&&&&&&&&&&&&&&&  XX  ++++++  XX++%%%%  &&&&&&&&&&&&&&&&&&",
"&&&&&&&&&&&&&&&&&&&&&&  XX  ++++++  XX++%%%%  &&&&&&&&&&&&&&&&&&",
"&&&&&&&&&&&&&&&&&&&&    ++++++++++++++++%%%%  &&&&&&&&&&&&&&&&&&",
"&&&&&&&&&&&&&&&&&&&&    ++++++++++++++++%%%%  &&&&&&&&&&&&&&&&&&",
"&&&&&&              ..  %%++++++++++++%%%%%%      &&&&&&&&&&&&&&",
"&&&&&&              ..  %%++++++++++++%%%%%%      &&&&&&&&&&&&&&",
"&&&&  @@@@@@@@@@@@@@    %%%%%%%%%%%%%%%%%%%%        &&&&&&&&&&&&",
"&&&&  @@@@@@@@@@@@@@    %%%%%%%%%%%%%%%%%%%%        &&&&&&&&&&&&",
"&&  @@@@@@@@@@@@@@@@  ..                    ++++++  &&&&&&&&&&&&",
"&&  @@@@@@@@@@@@@@@@  ..                    ++++++  &&&&&&&&&&&&",
"&&  OOOOOOOOOOOOOOOO  ..++++  oo$$$$$$oo$$$$++++    &&&&&&&&&&&&",
"&&  OOOOOOOOOOOOOOOO  ..++++  oo$$$$$$oo$$$$++++    &&&&&&&&&&&&",
"&&&&  OOOOOOOOOOOOOO  ..      oo$$$$$$oo$$      oo  &&&&&&&&&&&&",
"&&&&  OOOOOOOOOOOOOO  ..      oo$$$$$$oo$$      oo  &&&&&&&&&&&&",
"&&&&&&              ....  &&  ############  oooo  &&&&&&&&&&&&&&",
"&&&&&&              ....  &&  ############  oooo  &&&&&&&&&&&&&&",
"&&&&&&&&&&&&&&&&&&&&    &&  ##            ##    &&&&&&&&&&&&&&&&",
"&&&&&&&&&&&&&&&&&&&&    &&  ##            ##    &&&&&&&&&&&&&&&&",
"&&&&&&&&&&&&&&&&&&&&&&&&&&  ++  &&&&&&&&&&  ++  &&&&&&&&&&&&&&&&",
"&&&&&&&&&&&&&&&&&&&&&&&&&&  ++  &&&&&&&&&&  ++  &&&&&&&&&&&&&&&&",
"&&&&&&&&&&&&&&&&&&&&&&&&&&&&&&&&&&&&&&&&&&&&&&&&&&&&&&&&&&&&&&&&",
"&&&&&&&&&&&&&&&&&&&&&&&&&&&&&&&&&&&&&&&&&&&&&&&&&&&&&&&&&&&&&&&&",
"&&&&&&&&&&&&&&&&&&&&&&&&&&&&&&&&&&&&&&&&&&&&&&&&&&&&&&&&&&&&&&&&",
"&&&&&&&&&&&&&&&&&&&&&&&&&&&&&&&&&&&&&&&&&&&&&&&&&&&&&&&&&&&&&&&&",
"&&&&&&&&&&&&&&&&&&&&&&&&&&&&&&&&&&&&&&&&&&&&&&&&&&&&&&&&&&&&&&&&",
"&&&&&&&&&&&&&&&&&&&&&&&&&&&&&&&&&&&&&&&&&&&&&&&&&&&&&&&&&&&&&&&&",
"&&&&&&&&&&&&&&&&&&&&&&&&&&&&&&&&&&&&&&&&&&&&&&&&&&&&&&&&&&&&&&&&",
"&&&&&&&&&&&&&&&&&&&&&&&&&&&&&&&&&&&&&&&&&&&&&&&&&&&&&&&&&&&&&&&&",
"&&&&&&&&&&&&&&&&&&&&&&&&&&&&&&&&&&&&&&&&&&&&&&&&&&&&&&&&&&&&&&&&",
"&&&&&&&&&&&&&&&&&&&&&&&&&&&&&&&&&&&&&&&&&&&&&&&&&&&&&&&&&&&&&&&&",
"&&&&&&&&&&&&&&&&&&&&&&&&&&&&&&&&&&&&&&&&&&&&&&&&&&&&&&&&&&&&&&&&",
"&&&&&&&&&&&&&&&&&&&&&&&&&&&&&&&&&&&&&&&&&&&&&&&&&&&&&&&&&&&&&&&&"
};
