/* XPM */
static char *result[] = {
/* columns rows colors chars-per-pixel */
"64 64 9 1 ",
"  c #101E29",
". c #D17360",
"X c #4B9620",
"o c #EDA579",
"O c #9AD47D",
"+ c #0763D0",
"@ c #038FCD",
"# c #F8F8F8",
"$ c None",
/* pixels */
"$$$$$$$$$$$$$$$$$$$$$$$$$$$$$$$$$$$$$$$$$$$$$$$$$$$$$$$$$$$$$$$$",
"$$$$$$$$$$$$$$$$$$$$$$$$$$$$$$$$$$$$$$$$$$$$$$$$$$$$$$$$$$$$$$$$",
"$$$$$$$$$$$$$$$$$$$$$$$$$$$$$$$$$$$$$$$$$$$$$$$$$$$$$$$$$$$$$$$$",
"$$$$$$$$$$$$$$$$$$$$$$$$$$$$$$$$$$$$$$$$$$$$$$$$$$$$$$$$$$$$$$$$",
"$$$$$$$$$$$$$$$$$$$$$$$$$$$$$$$$$$$$$$$$$$$$$$$$$$$$$$$$$$$$$$$$",
"$$$$$$$$$$$$$$$$$$$$$$$$$$$$$$$$$$$$$$$$$$$$$$$$$$$$$$$$$$$$$$$$",
"$$$$$$$$$$$$$$$$$$$$$$$$$$$$$$$$$$$$$$$$$$$$$$$$$$$$$$$$$$$$$$$$",
"$$$$$$$$$$$$$$$$$$$$$$$$$$$$$$$$$$$$$$$$$$$$$$$$$$$$$$$$$$$$$$$$",
"$$$$$$$$$$$$$$$$$$$$$$$$$$$$$$$$$$$$$$$$$$$$$$$$$$$$$$$$$$$$$$$$",
"$$$$$$$$$$$$$$$$$$$$$$$$$$$$$$$$$$$$$$$$$$$$$$$$$$$$$$$$$$$$$$$$",
"$$$$$$$$$$$$$$$$$$$$$$$$$$$$$$$$$$$$$$$$$$$$$$$$$$$$$$$$$$$$$$$$",
"$$$$$$$$$$$$$$$$$$$$$$$$$$$$$$$$$$$$$$$$$$$$$$$$$$$$$$$$$$$$$$$$",
"$$$$$$$$$$$$$$$$$$$$$$$$$$$$$$$$$$$$$$$$$$$$$$$$$$$$$$$$$$$$$$$$",
"$$$$$$$$$$$$$$$$$$$$$$$$$$$$$$$$$$$$$$$$$$$$$$$$$$$$$$$$$$$$$$$$",
"$$$$$$$$$$$$$$$$$$$$$$$$$$$$$$$$$$$$$$$$$$$$$$$$$$$$$$$$$$$$$$$$",
"$$$$$$$$$$$$$$$$$$$$$$$$$$$$$$$$$$$$$$$$$$$$$$$$$$$$$$$$$$$$$$$$",
"$$$$$$$$$$$$$$$$$$$$$$$$$$    $$$$$$    $$$$$$$$$$$$$$$$$$$$$$$$",
"$$$$$$$$$$$$$$$$$$$$$$$$$$    $$$$$$    $$$$$$$$$$$$$$$$$$$$$$$$",
"$$$$$$$$$$$$$$$$$$$$$$$$  ####  $$  ####  $$$$$$$$$$$$$$$$$$$$$$",
"$$$$$$$$$$$$$$$$$$$$$$$$  ####  $$  ####  $$$$$$$$$$$$$$$$$$$$$$",
"$$$$$$$$$$$$$$$$$$$$$$$$  ####      ####  $$$$$$$$$$$$$$$$$$$$$$",
"$$$$$$$$$$$$$$$$$$$$$$$$  ####      ####  $$$$$$$$$$$$$$$$$$$$$$",
"$$$$$$$$$$$$$$$$$$$$$$  ##################  $$$$$$$$$$$$$$$$$$$$",
"$$$$$$$$$$$$$$$$$$$$$$  ##################  $$$$$$$$$$$$$$$$$$$$",
"$$$$$$$$$$$$$$$$$$$$  ####################  $$$$$$$$$$$$$$$$$$$$",
"$$$$$$$$$$$$$$$$$$$$  ####################  $$$$$$$$$$$$$$$$$$$$",
"$$$$$$$$$$$$$$$$$$$$  ##oooooooooooo######  $$$$$$$$$$$$$$$$$$$$",
"$$$$$$$$$$$$$$$$$$$$  ##oooooooooooo######  $$$$$$$$$$$$$$$$$$$$",
"$$$$$$$$$$$$$$$$$$$$  oooooooooooooooo####  $$$$$$$$$$$$$$$$$$$$",
"$$$$$$$$$$$$$$$$$$$$  oooooooooooooooo####  $$$$$$$$$$$$$$$$$$$$",
"$$$$$$$$$$$$$$$$$$$$  oooooooooooooooo####  $$$$$$$$$$$$$$$$$$$$",
"$$$$$$$$$$$$$$$$$$$$  oooooooooooooooo####  $$$$$$$$$$$$$$$$$$$$",
"$$$$$$$$$$$$$$$$$$$$  ..  oooooo  ..oo####  $$$$$$$$$$$$$$$$$$$$",
"$$$$$$$$$$$$$$$$$$$$  ..  oooooo  ..oo####  $$$$$$$$$$$$$$$$$$$$",
"$$$$$$$$$$$$$$$$$$$$  oooooooooooooooo####  $$$$$$$$$$$$$$$$$$$$",
"$$$$$$$$$$$$$$$$$$$$  oooooooooooooooo####  $$$$$$$$$$$$$$$$$$$$",
"$$$$$$$$$$$$$$$$$$$$  ##oooooooooooo######  $$$$$$$$$$$$$$$$$$$$",
"$$$$$$$$$$$$$$$$$$$$  ##oooooooooooo######  $$$$$$$$$$$$$$$$$$$$",
"$$$$$$$$$$$$$$$$$$$$  ####################      $$$$$$$$$$$$$$$$",
"$$$$$$$$$$$$$$$$$$$$  ####################      $$$$$$$$$$$$$$$$",
"$$$$$$$$$$$$$$$$$$$$$$                      OOOO  $$$$$$$$$$$$$$",
"$$$$$$$$$$$$$$$$$$$$$$                      OOOO  $$$$$$$$$$$$$$",
"$$$$$$$$$$$$$$$$$$$$$$$$    OO@@@@@@OO@@@@@@  OO  $$$$$$$$$$$$$$",
"$$$$$$$$$$$$$$$$$$$$$$$$    OO@@@@@@OO@@@@@@  OO  $$$$$$$$$$$$$$",
"$$$$$$$$$$$$$$$$$$$$$$  oo  XX@@@@@@XX  oooo  XX  $$$$$$$$$$$$$$",
"$$$$$$$$$$$$$$$$$$$$$$  oo  XX@@@@@@XX  oooo  XX  $$$$$$$$$$$$$$",
"$$$$$$$$$$$$$$$$$$$$$$  oo  XX@@@@@@XX  oooo  XX  $$$$$$$$$$$$$$",
"$$$$$$$$$$$$$$$$$$$$$$  oo  XX@@@@@@XX  oooo  XX  $$$$$$$$$$$$$$",
"$$$$$$$$$$$$$$$$$$$$$$$$    ++++++++++++    XX  $$$$$$$$$$$$$$$$",
"$$$$$$$$$$$$$$$$$$$$$$$$    ++++++++++++    XX  $$$$$$$$$$$$$$$$",
"$$$$$$$$$$$$$$$$$$$$$$$$$$  ++oo      ++oo    $$$$$$$$$$$$$$$$$$",
"$$$$$$$$$$$$$$$$$$$$$$$$$$  ++oo      ++oo    $$$$$$$$$$$$$$$$$$",
"$$$$$$$$$$$$$$$$$$$$$$$$$$$$$$$$$$$$$$$$$$$$$$$$$$$$$$$$$$$$$$$$",
"$$$$$$$$$$$$$$$$$$$$$$$$$$$$$$$$$$$$$$$$$$$$$$$$$$$$$$$$$$$$$$$$",
"$$$$$$$$$$$$$$$$$$$$$$$$$$$$$$$$$$$$$$$$$$$$$$$$$$$$$$$$$$$$$$$$",
"$$$$$$$$$$$$$$$$$$$$$$$$$$$$$$$$$$$$$$$$$$$$$$$$$$$$$$$$$$$$$$$$",
"$$$$$$$$$$$$$$$$$$$$$$$$$$$$$$$$$$$$$$$$$$$$$$$$$$$$$$$$$$$$$$$$",
"$$$$$$$$$$$$$$$$$$$$$$$$$$$$$$$$$$$$$$$$$$$$$$$$$$$$$$$$$$$$$$$$",
"$$$$$$$$$$$$$$$$$$$$$$$$$$$$$$$$$$$$$$$$$$$$$$$$$$$$$$$$$$$$$$$$",
"$$$$$$$$$$$$$$$$$$$$$$$$$$$$$$$$$$$$$$$$$$$$$$$$$$$$$$$$$$$$$$$$",
"$$$$$$$$$$$$$$$$$$$$$$$$$$$$$$$$$$$$$$$$$$$$$$$$$$$$$$$$$$$$$$$$",
"$$$$$$$$$$$$$$$$$$$$$$$$$$$$$$$$$$$$$$$$$$$$$$$$$$$$$$$$$$$$$$$$",
"$$$$$$$$$$$$$$$$$$$$$$$$$$$$$$$$$$$$$$$$$$$$$$$$$$$$$$$$$$$$$$$$",
"$$$$$$$$$$$$$$$$$$$$$$$$$$$$$$$$$$$$$$$$$$$$$$$$$$$$$$$$$$$$$$$$"
};
