/* XPM */
static char *result[] = {
/* columns rows colors chars-per-pixel */
"64 64 9 1 ",
"  c #101E29",
". c #D17360",
"X c #4B9620",
"o c #EDA579",
"O c #9AD47D",
"+ c #0763D0",
"@ c #038FCD",
"# c #F8F8F8",
"$ c None",
/* pixels */
"$$$$$$$$$$$$$$$$$$$$$$$$$$$$$$$$$$$$$$$$$$$$$$$$$$$$$$$$$$$$$$$$",
"$$$$$$$$$$$$$$$$$$$$$$$$$$$$$$$$$$$$$$$$$$$$$$$$$$$$$$$$$$$$$$$$",
"$$$$$$$$$$$$$$$$$$$$$$$$$$$$$$$$$$$$$$$$$$$$$$$$$$$$$$$$$$$$$$$$",
"$$$$$$$$$$$$$$$$$$$$$$$$$$$$$$$$$$$$$$$$$$$$$$$$$$$$$$$$$$$$$$$$",
"$$$$$$$$$$$$$$$$$$$$$$$$$$$$$$$$$$$$$$$$$$$$$$$$$$$$$$$$$$$$$$$$",
"$$$$$$$$$$$$$$$$$$$$$$$$$$$$$$$$$$$$$$$$$$$$$$$$$$$$$$$$$$$$$$$$",
"$$$$$$$$$$$$$$$$$$$$$$$$$$$$$$$$$$$$$$$$$$$$$$$$$$$$$$$$$$$$$$$$",
"$$$$$$$$$$$$$$$$$$$$$$$$$$$$$$$$$$$$$$$$$$$$$$$$$$$$$$$$$$$$$$$$",
"$$$$$$$$$$$$$$$$$$$$$$$$$$$$$$$$$$$$$$$$$$$$$$$$$$$$$$$$$$$$$$$$",
"$$$$$$$$$$$$$$$$$$$$$$$$$$$$$$$$$$$$$$$$$$$$$$$$$$$$$$$$$$$$$$$$",
"$$$$$$$$$$$$$$$$$$$$$$$$$$$$$$$$$$$$$$$$$$$$$$$$$$$$$$$$$$$$$$$$",
"$$$$$$$$$$$$$$$$$$$$$$$$$$$$$$$$$$$$$$$$$$$$$$$$$$$$$$$$$$$$$$$$",
"$$$$$$$$$$$$$$$$$$$$$$$$$$$$$$$$    $$$$$$    $$$$$$$$$$$$$$$$$$",
"$$$$$$$$$$$$$$$$$$$$$$$$$$$$$$$$    $$$$$$    $$$$$$$$$$$$$$$$$$",
"$$$$$$$$$$$$$$$$$$$$$$$$$$$$$$  ####  $$  ####  $$$$$$$$$$$$$$$$",
"$$$$$$$$$$$$$$$$$$$$$$$$$$$$$$  ####  $$  ####  $$$$$$$$$$$$$$$$",
"$$$$$$$$$$$$$$$$$$$$$$$$$$$$  ####      ######  $$$$$$$$$$$$$$$$",
"$$$$$$$$$$$$$$$$$$$$$$$$$$$$  ####      ######  $$$$$$$$$$$$$$$$",
"$$$$$$$$$$$$$$$$$$$$$$$$$$  ##################  $$$$$$$$$$$$$$$$",
"$$$$$$$$$$$$$$$$$$$$$$$$$$  ##################  $$$$$$$$$$$$$$$$",
"$$$$$$$$$$$$$$$$$$$$$$$$  ####################  $$$$$$$$$$$$$$$$",
"$$$$$$$$$$$$$$$$$$$$$$$$  ####################  $$$$$$$$$$$$$$$$",
"$$$$$$$$$$$$$$$$$$$$$$$$  ##oooooooooooo######  $$$$$$$$$$$$$$$$",
"$$$$$$$$$$$$$$$$$$$$$$$$  ##oooooooooooo######  $$$$$$$$$$$$$$$$",
"$$$$$$$$$$$$$$$$$$$$$$$$  oooooooooooooooo####  $$$$$$$$$$$$$$$$",
"$$$$$$$$$$$$$$$$$$$$$$$$  oooooooooooooooo####  $$$$$$$$$$$$$$$$",
"$$$$$$$$$$$$$$$$$$$$$$$$  oo  oooooo  oooo####  $$$$$$$$$$$$$$$$",
"$$$$$$$$$$$$$$$$$$$$$$$$  oo  oooooo  oooo####  $$$$$$$$$$$$$$$$",
"$$$$$$$$$$$$$$$$$$$$$$$$  ..  oooooo  ..oo####  $$$$$$$$$$$$$$$$",
"$$$$$$$$$$$$$$$$$$$$$$$$  ..  oooooo  ..oo####  $$$$$$$$$$$$$$$$",
"$$$$$$$$$$$$$$$$$$$$$$$$  oooooooooooooooo####  $$$$$$$$$$$$$$$$",
"$$$$$$$$$$$$$$$$$$$$$$$$  oooooooooooooooo####  $$$$$$$$$$$$$$$$",
"$$$$$$$$$$$$$$$$$$$$$$$$  ##oooooooooooo######  $$$$$$$$$$$$$$$$",
"$$$$$$$$$$$$$$$$$$$$$$$$  ##oooooooooooo######  $$$$$$$$$$$$$$$$",
"$$$$$$$$$$$$$$$$$$$$$$$$  ####################    $$$$$$$$$$$$$$",
"$$$$$$$$$$$$$$$$$$$$$$$$  ####################    $$$$$$$$$$$$$$",
"$$$$$$$$$$$$$$$$$$$$$$$$                      OOOO  $$$$$$$$$$$$",
"$$$$$$$$$$$$$$$$$$$$$$$$                      OOOO  $$$$$$$$$$$$",
"$$$$$$$$$$$$$$$$$$$$$$  oooo  OO@@@@@@OO@@@@@@  OO  $$$$$$$$$$$$",
"$$$$$$$$$$$$$$$$$$$$$$  oooo  OO@@@@@@OO@@@@@@  OO  $$$$$$$$$$$$",
"$$$$$$$$$$$$$$$$$$$$$$  oooo  XX@@@@@@XX@@  oooo    $$$$$$$$$$$$",
"$$$$$$$$$$$$$$$$$$$$$$  oooo  XX@@@@@@XX@@  oooo    $$$$$$$$$$$$",
"$$$$$$$$$$$$$$$$$$$$$$$$      XX@@@@@@XX@@  oooo    $$$$$$$$$$$$",
"$$$$$$$$$$$$$$$$$$$$$$$$      XX@@@@@@XX@@  oooo    $$$$$$$$$$$$",
"$$$$$$$$$$$$$$$$$$$$$$$$$$$$  ++++++++++++        $$$$$$$$##$$$$",
"$$$$$$$$$$$$$$$$$$$$$$$$$$$$  ++++++++++++        $$$$$$$$##$$$$",
"$$$$$$$$$$$$$$$$$$$$$$$$$$$$      oo  ++        $$$$$$$$####$$$$",
"$$$$$$$$$$$$$$$$$$$$$$$$$$$$      oo  ++        $$$$$$$$####$$$$",
"$$$$$$$$$$$$$$$$$$$$$$$$$$$$$$$$$$$$  oo  $$$$$$$$##$$$$$$$$$$$$",
"$$$$$$$$$$$$$$$$$$$$$$$$$$$$$$$$$$$$  oo  $$$$$$$$##$$$$$$$$$$$$",
"$$$$$$$$$$$$$$$$$$$$$$$$$$$$$$$$$$$$$$$$$$$$$$$$$$$$$$$$$$$$$$$$",
"$$$$$$$$$$$$$$$$$$$$$$$$$$$$$$$$$$$$$$$$$$$$$$$$$$$$$$$$$$$$$$$$",
"$$$$$$$$$$$$$$$$$$$$$$$$$$$$$$$$$$$$$$$$$$$$$$$$$$$$$$$$$$$$$$$$",
"$$$$$$$$$$$$$$$$$$$$$$$$$$$$$$$$$$$$$$$$$$$$$$$$$$$$$$$$$$$$$$$$",
"$$$$$$$$$$$$$$$$$$$$$$$$$$$$$$$$$$$$$$$$$$$$$$$$$$$$$$$$$$$$$$$$",
"$$$$$$$$$$$$$$$$$$$$$$$$$$$$$$$$$$$$$$$$$$$$$$$$$$$$$$$$$$$$$$$$",
"$$$$$$$$$$$$$$$$$$$$$$$$$$$$$$$$$$$$$$$$$$$$$$$$$$$$$$$$$$$$$$$$",
"$$$$$$$$$$$$$$$$$$$$$$$$$$$$$$$$$$$$$$$$$$$$$$$$$$$$$$$$$$$$$$$$",
"$$$$$$$$$$$$$$$$$$$$$$$$$$$$$$$$$$$$$$$$$$$$$$$$$$$$$$$$$$$$$$$$",
"$$$$$$$$$$$$$$$$$$$$$$$$$$$$$$$$$$$$$$$$$$$$$$$$$$$$$$$$$$$$$$$$",
"$$$$$$$$$$$$$$$$$$$$$$$$$$$$$$$$$$$$$$$$$$$$$$$$$$$$$$$$$$$$$$$$",
"$$$$$$$$$$$$$$$$$$$$$$$$$$$$$$$$$$$$$$$$$$$$$$$$$$$$$$$$$$$$$$$$",
"$$$$$$$$$$$$$$$$$$$$$$$$$$$$$$$$$$$$$$$$$$$$$$$$$$$$$$$$$$$$$$$$",
"$$$$$$$$$$$$$$$$$$$$$$$$$$$$$$$$$$$$$$$$$$$$$$$$$$$$$$$$$$$$$$$$"
};
