/* XPM */
static char *result[] = {
/* columns rows colors chars-per-pixel */
"64 64 9 1 ",
"  c #101E29",
". c #D17360",
"X c #4B9620",
"o c #EDA579",
"O c #F1F745",
"+ c #BC0D35",
"@ c #DE264C",
"# c #F8F8F8",
"$ c None",
/* pixels */
"$$$$$$$$$$$$$$$$$$$$$$$$$$$$$$$$$$$$$$$$$$$$$$$$$$$$$$$$$$$$$$$$",
"$$$$$$$$$$$$$$$$$$$$$$$$$$$$$$$$$$$$$$$$$$$$$$$$$$$$$$$$$$$$$$$$",
"$$$$$$$$$$$$$$$$$$$$$$$$$$$$$$$$$$$$$$$$$$$$$$$$$$$$$$$$$$$$$$$$",
"$$$$$$$$$$$$$$$$$$$$$$$$$$$$$$$$$$$$$$$$$$$$$$$$$$$$$$$$$$$$$$$$",
"$$$$$$$$$$$$$$$$$$$$$$$$$$$$$$$$$$$$$$$$$$$$$$$$$$$$$$$$$$$$$$$$",
"$$$$$$$$$$$$$$$$$$$$$$$$$$$$$$$$$$$$$$$$$$$$$$$$$$$$$$$$$$$$$$$$",
"$$$$$$$$$$$$$$$$$$$$$$$$$$$$$$$$$$$$$$$$$$$$$$$$$$$$$$$$$$$$$$$$",
"$$$$$$$$$$$$$$$$$$$$$$$$$$$$$$$$$$$$$$$$$$$$$$$$$$$$$$$$$$$$$$$$",
"$$$$$$$$$$$$$$$$$$$$$$$$$$$$$$$$$$$$$$$$$$$$$$$$$$$$$$$$$$$$$$$$",
"$$$$$$$$$$$$$$$$$$$$$$$$$$$$$$$$$$$$$$$$$$$$$$$$$$$$$$$$$$$$$$$$",
"$$$$$$$$$$$$$$$$$$$$$$$$$$$$$$$$$$$$$$$$$$$$$$$$$$$$$$$$$$$$$$$$",
"$$$$$$$$$$$$$$$$$$$$$$$$$$$$$$$$$$$$$$$$$$$$$$$$$$$$$$$$$$$$$$$$",
"$$$$$$$$$$$$$$$$$$$$$$$$$$$$$$$$$$$$$$$$$$$$$$$$$$$$$$$$$$$$$$$$",
"$$$$$$$$$$$$$$$$$$$$$$$$$$$$$$$$$$$$$$$$$$$$$$$$$$$$$$$$$$$$$$$$",
"$$$$$$$$$$$$$$$$$$$$$$$$$$$$$$$$$$$$$$$$$$$$$$$$$$$$$$$$$$$$$$$$",
"$$$$$$$$$$$$$$$$$$$$$$$$$$$$$$$$$$$$$$$$$$$$$$$$$$$$$$$$$$$$$$$$",
"$$$$$$$$$$$$$$$$$$$$    $$$$$$    $$$$$$$$$$$$$$$$$$$$$$$$$$$$$$",
"$$$$$$$$$$$$$$$$$$$$    $$$$$$    $$$$$$$$$$$$$$$$$$$$$$$$$$$$$$",
"$$$$$$$$$$$$$$$$$$  ####  $$  ####  $$$$$$$$$$$$$$$$$$$$$$$$$$$$",
"$$$$$$$$$$$$$$$$$$  ####  $$  ####  $$$$$$$$$$$$$$$$$$$$$$$$$$$$",
"$$$$$$$$$$$$$$$$$$  ######      ####  $$$$$$$$$$$$$$$$$$$$$$$$$$",
"$$$$$$$$$$$$$$$$$$  ######      ####  $$$$$$$$$$$$$$$$$$$$$$$$$$",
"$$$$$$$$$$$$$$$$$$  ##################  $$$$$$$$$$$$$$$$$$$$$$$$",
"$$$$$$$$$$$$$$$$$$  ##################  $$$$$$$$$$$$$$$$$$$$$$$$",
"$$$$$$$$$$$$$$$$$$  ####################  $$$$$$$$$$$$$$$$$$$$$$",
"$$$$$$$$$$$$$$$$$$  ####################  $$$$$$$$$$$$$$$$$$$$$$",
"$$$$$$$$$$$$$$$$$$  ######oooooooooooo##  $$$$$$$$$$$$$$$$$$$$$$",
"$$$$$$$$$$$$$$$$$$  ######oooooooooooo##  $$$$$$$$$$$$$$$$$$$$$$",
"$$$$$$$$$$$$$$$$$$  ####oooooooooooooooo  $$$$$$$$$$$$$$$$$$$$$$",
"$$$$$$$$$$$$$$$$$$  ####oooooooooooooooo  $$$$$$$$$$$$$$$$$$$$$$",
"$$$$$$$$$$$$$$$$$$  ####oooooooooooooooo  $$$$$$$$$$$$$$$$$$$$$$",
"$$$$$$$$$$$$$$$$$$  ####oooooooooooooooo  $$$$$$$$$$$$$$$$$$$$$$",
"$$$$$$$$$$$$$$$$$$  ####oo..  oooooo  ..  $$$$$$$$$$$$$$$$$$$$$$",
"$$$$$$$$$$$$$$$$$$  ####oo..  oooooo  ..  $$$$$$$$$$$$$$$$$$$$$$",
"$$$$$$$$$$$$$$$$$$  ####oooooooooooooooo      $$$$$$$$$$$$$$$$$$",
"$$$$$$$$$$$$$$$$$$  ####oooooooooooooooo      $$$$$$$$$$$$$$$$$$",
"$$$$$$$$$$$$$$      ######oooooooooooo##  OOOOOOOOOOOOOOOOOO$$$$",
"$$$$$$$$$$$$$$      ######oooooooooooo##  OOOOOOOOOOOOOOOOOO$$$$",
"$$$$$$$$$$$$        ##########OOOOOO##OOOOOOOOOOOOOOOOOOOOOOOO$$",
"$$$$$$$$$$$$        ##########OOOOOO##OOOOOOOOOOOOOOOOOOOOOOOO$$",
"$$$$$$$$$$$$  oooooo                    ooOOOOOOOOOOOOOOOOOOOOOO",
"$$$$$$$$$$$$  oooooo                    ooOOOOOOOOOOOOOOOOOOOOOO",
"$$$$$$$$$$$$    oooo@@@@XX@@@@@@XX  ooooooOOOOOOOOOOOOOOOOOOOOOO",
"$$$$$$$$$$$$    oooo@@@@XX@@@@@@XX  ooooooOOOOOOOOOOOOOOOOOOOOOO",
"$$$$$$$$$$$$  XX      @@XX@@@@OOOOOO  OOOOOOOOOOOOOOOOOOOOOOOO$$",
"$$$$$$$$$$$$  XX      @@XX@@@@OOOOOO  OOOOOOOOOOOOOOOOOOOOOOOO$$",
"$$$$$$$$$$$$$$  XXXX  ++++++++++++  $$$$  OOOOOOOOOOOOOOOOOO$$$$",
"$$$$$$$$$$$$$$  XXXX  ++++++++++++  $$$$  OOOOOOOOOOOOOOOOOO$$$$",
"$$$$$$$$$$$$$$$$    ++            ++  $$$$    $$$$$$$$$$$$$$$$$$",
"$$$$$$$$$$$$$$$$    ++            ++  $$$$    $$$$$$$$$$$$$$$$$$",
"$$$$$$$$$$$$$$$$  oo  $$$$$$$$$$  oo  $$$$$$$$$$$$$$$$$$$$$$$$$$",
"$$$$$$$$$$$$$$$$  oo  $$$$$$$$$$  oo  $$$$$$$$$$$$$$$$$$$$$$$$$$",
"$$$$$$$$$$$$$$$$$$$$$$$$$$$$$$$$$$$$$$$$$$$$$$$$$$$$$$$$$$$$$$$$",
"$$$$$$$$$$$$$$$$$$$$$$$$$$$$$$$$$$$$$$$$$$$$$$$$$$$$$$$$$$$$$$$$",
"$$$$$$$$$$$$$$$$$$$$$$$$$$$$$$$$$$$$$$$$$$$$$$$$$$$$$$$$$$$$$$$$",
"$$$$$$$$$$$$$$$$$$$$$$$$$$$$$$$$$$$$$$$$$$$$$$$$$$$$$$$$$$$$$$$$",
"$$$$$$$$$$$$$$$$$$$$$$$$$$$$$$$$$$$$$$$$$$$$$$$$$$$$$$$$$$$$$$$$",
"$$$$$$$$$$$$$$$$$$$$$$$$$$$$$$$$$$$$$$$$$$$$$$$$$$$$$$$$$$$$$$$$",
"$$$$$$$$$$$$$$$$$$$$$$$$$$$$$$$$$$$$$$$$$$$$$$$$$$$$$$$$$$$$$$$$",
"$$$$$$$$$$$$$$$$$$$$$$$$$$$$$$$$$$$$$$$$$$$$$$$$$$$$$$$$$$$$$$$$",
"$$$$$$$$$$$$$$$$$$$$$$$$$$$$$$$$$$$$$$$$$$$$$$$$$$$$$$$$$$$$$$$$",
"$$$$$$$$$$$$$$$$$$$$$$$$$$$$$$$$$$$$$$$$$$$$$$$$$$$$$$$$$$$$$$$$",
"$$$$$$$$$$$$$$$$$$$$$$$$$$$$$$$$$$$$$$$$$$$$$$$$$$$$$$$$$$$$$$$$",
"$$$$$$$$$$$$$$$$$$$$$$$$$$$$$$$$$$$$$$$$$$$$$$$$$$$$$$$$$$$$$$$$"
};
