/* XPM */
static char *result[] = {
/* columns rows colors chars-per-pixel */
"64 64 9 1 ",
"  c #101E29",
". c #17203F",
"X c #D17360",
"o c #4B9620",
"O c #EDA579",
"+ c #BC0D35",
"@ c #DE264C",
"# c #F8F8F8",
"$ c None",
/* pixels */
"$$$$$$$$$$$$$$$$$$$$$$$$$$$$$$$$$$$$$$$$$$$$$$$$$$$$$$$$$$$$$$$$",
"$$$$$$$$$$$$$$$$$$$$$$$$$$$$$$$$$$$$$$$$$$$$$$$$$$$$$$$$$$$$$$$$",
"$$$$$$$$$$$$$$$$$$$$$$$$$$$$$$$$$$$$$$$$$$$$$$$$$$$$$$$$$$$$$$$$",
"$$$$$$$$$$$$$$$$$$$$$$$$$$$$$$$$$$$$$$$$$$$$$$$$$$$$$$$$$$$$$$$$",
"$$$$$$$$$$$$$$$$$$$$$$$$$$$$$$$$$$$$$$$$$$$$$$$$$$$$$$$$$$$$$$$$",
"$$$$$$$$$$$$$$$$$$$$$$$$$$$$$$$$$$$$$$$$$$$$$$$$$$$$$$$$$$$$$$$$",
"$$$$$$$$$$$$$$$$$$$$$$$$$$$$$$$$$$$$$$$$$$$$$$$$$$$$$$$$$$$$$$$$",
"$$$$$$$$$$$$$$$$$$$$$$$$$$$$$$$$$$$$$$$$$$$$$$$$$$$$$$$$$$$$$$$$",
"$$$$$$$$$$$$$$$$$$$$$$$$$$$$$$$$$$$$$$$$$$$$$$$$$$$$$$$$$$$$$$$$",
"$$$$$$$$$$$$$$$$$$$$$$$$$$$$$$$$$$$$$$$$$$$$$$$$$$$$$$$$$$$$$$$$",
"$$$$$$$$$$$$$$$$$$$$$$$$$$$$$$$$$$$$$$$$$$$$$$$$$$$$$$$$$$$$$$$$",
"$$$$$$$$$$$$$$$$$$$$$$$$$$$$$$$$$$$$$$$$$$$$$$$$$$$$$$$$$$$$$$$$",
"$$$$$$$$$$$$$$$$$$$$$$$$$$$$$$$$$$$$$$$$$$$$$$$$$$$$$$$$$$$$$$$$",
"$$$$$$$$$$$$$$$$$$$$$$$$$$$$$$$$$$$$$$$$$$$$$$$$$$$$$$$$$$$$$$$$",
"$$$$$$$$$$$$$$$$$$$$$$$$$$$$$$$$$$$$$$$$$$$$$$$$$$$$$$$$$$$$$$$$",
"$$$$$$$$$$$$$$$$$$$$$$$$$$$$$$$$$$$$$$$$$$$$$$$$$$$$$$$$$$$$$$$$",
"$$$$$$$$$$$$$$$$$$$$$$    $$$$$$    $$$$$$$$$$$$$$$$$$$$$$$$$$$$",
"$$$$$$$$$$$$$$$$$$$$$$    $$$$$$    $$$$$$$$$$$$$$$$$$$$$$$$$$$$",
"$$$$$$$$$$$$$$$$$$$$  ####  $$  ####  $$$$$$$$$$$$$$$$$$$$$$$$$$",
"$$$$$$$$$$$$$$$$$$$$  ####  $$  ####  $$$$$$$$$$$$$$$$$$$$$$$$$$",
"$$$$$$$$$$$$$$$$$$$$  ####      ####  $$$$$$$$$$$$$$$$$$$$$$$$$$",
"$$$$$$$$$$$$$$$$$$$$  ####      ####  $$$$$$$$$$$$$$$$$$$$$$$$$$",
"$$$$$$$$$$$$$$$$$$  ##################  $$$$$$$$$$$$$$$$$$$$$$$$",
"$$$$$$$$$$$$$$$$$$  ##################  $$$$$$$$$$$$$$$$$$$$$$$$",
"$$$$$$$$$$$$$$$$$$  ####################  $$$$$$$$$$$$$$$$$$$$$$",
"$$$$$$$$$$$$$$$$$$  ####################  $$$$$$$$$$$$$$$$$$$$$$",
"$$$$$$$$$$$$$$$$$$  ######OOOOOOOOOOOO##  $$$$$$$$$$$$$$$$$$$$$$",
"$$$$$$$$$$$$$$$$$$  ######OOOOOOOOOOOO##  $$$$$$$$$$$$$$$$$$$$$$",
"$$$$$$$$$$$$$$$$$$  ####OOOOOOOOOOOOOOOO  $$$$$$$$$$$$$$$$$$$$$$",
"$$$$$$$$$$$$$$$$$$  ####OOOOOOOOOOOOOOOO  $$$$$$$$$$$$$$$$$$$$$$",
"$$$$$$$$$$$$$$$$$$  ####OOOOOOOOOOOOOOOO  $$$$$$$$$$$$$$$$$$$$$$",
"$$$$$$$$$$$$$$$$$$  ####OOOOOOOOOOOOOOOO  $$$$$$$$$$$$$$$$$$$$$$",
"$$$$$$$$$$$$$$$$$$  ####OOXX  OOOOOO  XX  $$$$$$$$$$$$$$$$$$$$$$",
"$$$$$$$$$$$$$$$$$$  ####OOXX  OOOOOO  XX  $$$$$$$$$$$$$$$$$$$$$$",
"$$$$$$$$$$$$$$$$$$  ####OOOOOOOOOOOOOOOO      $$$$$$$$$$$$$$$$$$",
"$$$$$$$$$$$$$$$$$$  ####OOOOOOOOOOOOOOOO      $$$$$$$$$$$$$$$$$$",
"$$$$$$$$$$$$$$      ######OOOOOOOOOOOO####..################$$$$",
"$$$$$$$$$$$$$$      ######OOOOOOOOOOOO####..################$$$$",
"$$$$$$$$$$$$        ####################  ..  ################$$",
"$$$$$$$$$$$$        ####################  ..  ################$$",
"$$$$$$$$$$$$  OOOOOO                    OO..  ##################",
"$$$$$$$$$$$$  OOOOOO                    OO..  ##################",
"$$$$$$$$$$$$    OOOO@@@@oo@@@@@@oo  OOOOOO..  ##################",
"$$$$$$$$$$$$    OOOO@@@@oo@@@@@@oo  OOOOOO..  ##################",
"$$$$$$$$$$$$  oo      @@oo@@@@@@oo        ..  ################$$",
"$$$$$$$$$$$$  oo      @@oo@@@@@@oo        ..  ################$$",
"$$$$$$$$$$$$$$  oooo  ++++++++++++  $$$$##..################$$$$",
"$$$$$$$$$$$$$$  oooo  ++++++++++++  $$$$##..################$$$$",
"$$$$$$$$$$$$$$$$    ++            ++  $$$$    $$$$$$$$$$$$$$$$$$",
"$$$$$$$$$$$$$$$$    ++            ++  $$$$    $$$$$$$$$$$$$$$$$$",
"$$$$$$$$$$$$$$$$  OO  $$$$$$$$$$  OO  $$$$$$$$$$$$$$$$$$$$$$$$$$",
"$$$$$$$$$$$$$$$$  OO  $$$$$$$$$$  OO  $$$$$$$$$$$$$$$$$$$$$$$$$$",
"$$$$$$$$$$$$$$$$$$$$$$$$$$$$$$$$$$$$$$$$$$$$$$$$$$$$$$$$$$$$$$$$",
"$$$$$$$$$$$$$$$$$$$$$$$$$$$$$$$$$$$$$$$$$$$$$$$$$$$$$$$$$$$$$$$$",
"$$$$$$$$$$$$$$$$$$$$$$$$$$$$$$$$$$$$$$$$$$$$$$$$$$$$$$$$$$$$$$$$",
"$$$$$$$$$$$$$$$$$$$$$$$$$$$$$$$$$$$$$$$$$$$$$$$$$$$$$$$$$$$$$$$$",
"$$$$$$$$$$$$$$$$$$$$$$$$$$$$$$$$$$$$$$$$$$$$$$$$$$$$$$$$$$$$$$$$",
"$$$$$$$$$$$$$$$$$$$$$$$$$$$$$$$$$$$$$$$$$$$$$$$$$$$$$$$$$$$$$$$$",
"$$$$$$$$$$$$$$$$$$$$$$$$$$$$$$$$$$$$$$$$$$$$$$$$$$$$$$$$$$$$$$$$",
"$$$$$$$$$$$$$$$$$$$$$$$$$$$$$$$$$$$$$$$$$$$$$$$$$$$$$$$$$$$$$$$$",
"$$$$$$$$$$$$$$$$$$$$$$$$$$$$$$$$$$$$$$$$$$$$$$$$$$$$$$$$$$$$$$$$",
"$$$$$$$$$$$$$$$$$$$$$$$$$$$$$$$$$$$$$$$$$$$$$$$$$$$$$$$$$$$$$$$$",
"$$$$$$$$$$$$$$$$$$$$$$$$$$$$$$$$$$$$$$$$$$$$$$$$$$$$$$$$$$$$$$$$",
"$$$$$$$$$$$$$$$$$$$$$$$$$$$$$$$$$$$$$$$$$$$$$$$$$$$$$$$$$$$$$$$$"
};
