/* XPM */
static char *result[] = {
/* columns rows colors chars-per-pixel */
"64 64 9 1 ",
"  c #101E29",
". c #D17360",
"X c #4B9620",
"o c #EDA579",
"O c #9AD47D",
"+ c #BC0D35",
"@ c #DE264C",
"# c #F8F8F8",
"$ c None",
/* pixels */
"$$$$$$$$$$$$$$$$$$$$$$$$$$$$$$$$$$$$$$$$$$$$$$$$$$$$$$$$$$$$$$$$",
"$$$$$$$$$$$$$$$$$$$$$$$$$$$$$$$$$$$$$$$$$$$$$$$$$$$$$$$$$$$$$$$$",
"$$$$$$$$$$$$$$$$$$$$$$$$$$$$$$$$$$$$$$$$$$$$$$$$$$$$$$$$$$$$$$$$",
"$$$$$$$$$$$$$$$$$$$$$$$$$$$$$$$$$$$$$$$$$$$$$$$$$$$$$$$$$$$$$$$$",
"$$$$$$$$$$$$$$$$$$$$$$$$$$$$$$$$$$$$$$$$$$$$$$$$$$$$$$$$$$$$$$$$",
"$$$$$$$$$$$$$$$$$$$$$$$$$$$$$$$$$$$$$$$$$$$$$$$$$$$$$$$$$$$$$$$$",
"$$$$$$$$$$$$$$$$$$$$$$$$$$$$$$$$$$$$$$$$$$$$$$$$$$$$$$$$$$$$$$$$",
"$$$$$$$$$$$$$$$$$$$$$$$$$$$$$$$$$$$$$$$$$$$$$$$$$$$$$$$$$$$$$$$$",
"$$$$$$$$$$$$$$$$$$$$$$$$$$$$$$$$$$$$$$$$$$$$$$$$$$$$$$$$$$$$$$$$",
"$$$$$$$$$$$$$$$$$$$$$$$$$$$$$$$$$$$$$$$$$$$$$$$$$$$$$$$$$$$$$$$$",
"$$$$$$$$$$$$$$$$$$$$$$$$$$$$$$$$$$$$$$$$$$$$$$$$$$$$$$$$$$$$$$$$",
"$$$$$$$$$$$$$$$$$$$$$$$$$$$$$$$$$$$$$$$$$$$$$$$$$$$$$$$$$$$$$$$$",
"$$$$$$$$$$$$$$$$$$    $$$$$$    $$$$$$$$$$$$$$$$$$$$$$$$$$$$$$$$",
"$$$$$$$$$$$$$$$$$$    $$$$$$    $$$$$$$$$$$$$$$$$$$$$$$$$$$$$$$$",
"$$$$$$$$$$$$$$$$  ####  $$  ####  $$$$$$$$$$$$$$$$$$$$$$$$$$$$$$",
"$$$$$$$$$$$$$$$$  ####  $$  ####  $$$$$$$$$$$$$$$$$$$$$$$$$$$$$$",
"$$$$$$$$$$$$$$$$  ######      ####  $$$$$$$$$$$$$$$$$$$$$$$$$$$$",
"$$$$$$$$$$$$$$$$  ######      ####  $$$$$$$$$$$$$$$$$$$$$$$$$$$$",
"$$$$$$$$$$$$$$$$  ##################  $$$$$$$$$$$$$$$$$$$$$$$$$$",
"$$$$$$$$$$$$$$$$  ##################  $$$$$$$$$$$$$$$$$$$$$$$$$$",
"$$$$$$$$$$$$$$$$  ####################  $$$$$$$$$$$$$$$$$$$$$$$$",
"$$$$$$$$$$$$$$$$  ####################  $$$$$$$$$$$$$$$$$$$$$$$$",
"$$$$$$$$$$$$$$$$  ######oooooooooooo##  $$$$$$$$$$$$$$$$$$$$$$$$",
"$$$$$$$$$$$$$$$$  ######oooooooooooo##  $$$$$$$$$$$$$$$$$$$$$$$$",
"$$$$$$$$$$$$$$$$  ####oooooooooooooooo  $$$$$$$$$$$$$$$$$$$$$$$$",
"$$$$$$$$$$$$$$$$  ####oooooooooooooooo  $$$$$$$$$$$$$$$$$$$$$$$$",
"$$$$$$$$$$$$$$$$  ####oooo  oooooo  oo  $$$$$$$$$$$$$$$$$$$$$$$$",
"$$$$$$$$$$$$$$$$  ####oooo  oooooo  oo  $$$$$$$$$$$$$$$$$$$$$$$$",
"$$$$$$$$$$$$$$$$  ####oo..  oooooo  ..  $$$$$$$$$$$$$$$$$$$$$$$$",
"$$$$$$$$$$$$$$$$  ####oo..  oooooo  ..  $$$$$$$$$$$$$$$$$$$$$$$$",
"$$$$$$$$$$$$$$$$  ####oooooooooooooooo  $$$$$$$$$$$$$$$$$$$$$$$$",
"$$$$$$$$$$$$$$$$  ####oooooooooooooooo  $$$$$$$$$$$$$$$$$$$$$$$$",
"$$$$$$$$$$$$$$$$  ######oooooooooooo##  $$$$$$$$$$$$$$$$$$$$$$$$",
"$$$$$$$$$$$$$$$$  ######oooooooooooo##  $$$$$$$$$$$$$$$$$$$$$$$$",
"$$$$$$$$$$$$$$    ####################  $$$$$$$$$$$$$$$$$$$$$$$$",
"$$$$$$$$$$$$$$    ####################  $$$$$$$$$$$$$$$$$$$$$$$$",
"$$$$$$$$$$$$  OOOO                      $$$$$$$$$$$$$$$$$$$$$$$$",
"$$$$$$$$$$$$  OOOO                      $$$$$$$$$$$$$$$$$$$$$$$$",
"$$$$$$$$$$$$  OO  @@@@@@OO@@@@@@OO  oooo  $$$$$$$$$$$$$$$$$$$$$$",
"$$$$$$$$$$$$  OO  @@@@@@OO@@@@@@OO  oooo  $$$$$$$$$$$$$$$$$$$$$$",
"$$$$$$$$$$$$    oooo  @@XX@@@@@@XX  oooo  $$$$$$$$$$$$$$$$$$$$$$",
"$$$$$$$$$$$$    oooo  @@XX@@@@@@XX  oooo  $$$$$$$$$$$$$$$$$$$$$$",
"$$$$$$$$$$$$    oooo  @@XX@@@@@@XX      $$$$$$$$$$$$$$$$$$$$$$$$",
"$$$$$$$$$$$$    oooo  @@XX@@@@@@XX      $$$$$$$$$$$$$$$$$$$$$$$$",
"$$$$$$$$$$$$$$        ++++++++++++    $$$$$$$$$$$$$$$$$$$$$$$$$$",
"$$$$$$$$$$$$$$        ++++++++++++    $$$$$$$$$$$$$$$$$$$$$$$$$$",
"$$$$$$$$$$$$$$$$    oooo          ++  $$$$$$$$$$$$$$$$$$$$$$$$$$",
"$$$$$$$$$$$$$$$$    oooo          ++  $$$$$$$$$$$$$$$$$$$$$$$$$$",
"$$$$$$$$$$$$$$$$$$$$        $$$$  oo  $$$$$$$$$$$$$$$$$$$$$$$$$$",
"$$$$$$$$$$$$$$$$$$$$        $$$$  oo  $$$$$$$$$$$$$$$$$$$$$$$$$$",
"$$$$$$$$$$$$$$$$$$$$$$$$$$$$$$$$$$$$$$$$$$$$$$$$$$$$$$$$$$$$$$$$",
"$$$$$$$$$$$$$$$$$$$$$$$$$$$$$$$$$$$$$$$$$$$$$$$$$$$$$$$$$$$$$$$$",
"$$$$$$$$$$$$$$$$$$$$$$$$$$$$$$$$$$$$$$$$$$$$$$$$$$$$$$$$$$$$$$$$",
"$$$$$$$$$$$$$$$$$$$$$$$$$$$$$$$$$$$$$$$$$$$$$$$$$$$$$$$$$$$$$$$$",
"$$$$$$$$$$$$$$$$$$$$$$$$$$$$$$$$$$$$$$$$$$$$$$$$$$$$$$$$$$$$$$$$",
"$$$$$$$$$$$$$$$$$$$$$$$$$$$$$$$$$$$$$$$$$$$$$$$$$$$$$$$$$$$$$$$$",
"$$$$$$$$$$$$$$$$$$$$$$$$$$$$$$$$$$$$$$$$$$$$$$$$$$$$$$$$$$$$$$$$",
"$$$$$$$$$$$$$$$$$$$$$$$$$$$$$$$$$$$$$$$$$$$$$$$$$$$$$$$$$$$$$$$$",
"$$$$$$$$$$$$$$$$$$$$$$$$$$$$$$$$$$$$$$$$$$$$$$$$$$$$$$$$$$$$$$$$",
"$$$$$$$$$$$$$$$$$$$$$$$$$$$$$$$$$$$$$$$$$$$$$$$$$$$$$$$$$$$$$$$$",
"$$$$$$$$$$$$$$$$$$$$$$$$$$$$$$$$$$$$$$$$$$$$$$$$$$$$$$$$$$$$$$$$",
"$$$$$$$$$$$$$$$$$$$$$$$$$$$$$$$$$$$$$$$$$$$$$$$$$$$$$$$$$$$$$$$$",
"$$$$$$$$$$$$$$$$$$$$$$$$$$$$$$$$$$$$$$$$$$$$$$$$$$$$$$$$$$$$$$$$",
"$$$$$$$$$$$$$$$$$$$$$$$$$$$$$$$$$$$$$$$$$$$$$$$$$$$$$$$$$$$$$$$$"
};
