/* XPM */
static char *result[] = {
/* columns rows colors chars-per-pixel */
"64 64 9 1 ",
"  c #101E29",
". c #D17360",
"X c #4B9620",
"o c #EDA579",
"O c #9AD47D",
"+ c #BC0D35",
"@ c #DE264C",
"# c #F8F8F8",
"$ c None",
/* pixels */
"$$$$$$$$$$$$$$$$$$$$$$$$$$$$$$$$$$$$$$$$$$$$$$$$$$$$$$$$$$$$$$$$",
"$$$$$$$$$$$$$$$$$$$$$$$$$$$$$$$$$$$$$$$$$$$$$$$$$$$$$$$$$$$$$$$$",
"$$$$$$$$$$$$$$$$$$$$$$$$$$$$$$$$$$$$$$$$$$$$$$$$$$$$$$$$$$$$$$$$",
"$$$$$$$$$$$$$$$$$$$$$$$$$$$$$$$$$$$$$$$$$$$$$$$$$$$$$$$$$$$$$$$$",
"$$$$$$$$$$$$$$$$$$$$$$$$$$$$$$$$$$$$$$$$$$$$$$$$$$$$$$$$$$$$$$$$",
"$$$$$$$$$$$$$$$$$$$$$$$$$$$$$$$$$$$$$$$$$$$$$$$$$$$$$$$$$$$$$$$$",
"$$$$$$$$$$$$$$$$$$$$$$$$$$$$$$$$$$$$$$$$$$$$$$$$$$$$$$$$$$$$$$$$",
"$$$$$$$$$$$$$$$$$$$$$$$$$$$$$$$$$$$$$$$$$$$$$$$$$$$$$$$$$$$$$$$$",
"$$$$$$$$$$$$$$$$$$$$$$$$$$$$$$$$$$$$$$##$$$$$$$$$$$$$$$$$$$$$$$$",
"$$$$$$$$$$$$$$$$$$$$$$$$$$$$$$$$$$$$$$##$$$$$$$$$$$$$$$$$$$$$$$$",
"$$$$$$$$$$$$$$$$$$$$$$$$$$$$$$$$$$$$$$$$$$$$$$##$$$$$$$$$$$$$$$$",
"$$$$$$$$$$$$$$$$$$$$$$$$$$$$$$$$$$$$$$$$$$$$$$##$$$$$$$$$$$$$$$$",
"$$$$$$$$$$$$$$$$$$$$$$$$$$$$$$$$$$$$$$$$$$$$$$$$$$$$$$$$$$$$$$$$",
"$$$$$$$$$$$$$$$$$$$$$$$$$$$$$$$$$$$$$$$$$$$$$$$$$$$$$$$$$$$$$$$$",
"$$$$$$$$$$$$$$$$$$    $$$$$$    $$$$$$$$$$$$$$$$$$$$$$$$$$$$$$$$",
"$$$$$$$$$$$$$$$$$$    $$$$$$    $$$$$$$$$$$$$$$$$$$$$$$$$$$$$$$$",
"$$$$$$$$$$$$$$$$  ####  $$  ####  $$$$$$$$$$$$$$$$$$$$$$$$$$$$$$",
"$$$$$$$$$$$$$$$$  ####  $$  ####  $$$$$$$$$$$$$$$$$$$$$$$$$$$$$$",
"$$$$$$$$$$$$$$$$  ####      ####  $$$$$$$$$$$$$$##$$$$$$$$$$$$$$",
"$$$$$$$$$$$$$$$$  ####      ####  $$$$$$$$$$$$$$##$$$$$$$$$$$$$$",
"$$$$$$$$$$$$$$  ##################  $$$$$$$$$$$$$$$$$$$$$$$$$$$$",
"$$$$$$$$$$$$$$  ##################  $$$$$$$$$$$$$$$$$$$$$$$$$$$$",
"$$$$$$$$$$$$$$  ####################  $$$$$$$$$$$$$$$$$$$$$$$$$$",
"$$$$$$$$$$$$$$  ####################  $$$$$$$$$$$$$$$$$$$$$$$$$$",
"$$$$$$$$$$$$$$  ######oooooooooooo##  $$$$$$$$$$$$$$$$$$$$$$$$$$",
"$$$$$$$$$$$$$$  ######oooooooooooo##  $$$$$$$$$$$$$$$$$$$$$$$$$$",
"$$$$$$$$$$$$$$  ####oooooooooooooooo  $$$$$$$$$$$$$$$$$$$$$$$$$$",
"$$$$$$$$$$$$$$  ####oooooooooooooooo  $$$$$$$$$$$$$$$$$$$$$$$$$$",
"$$$$$$$$$$$$$$  ####oooooooooooooooo  $$$$$$$$$$$$$$$$$$$$$$$$$$",
"$$$$$$$$$$$$$$  ####oooooooooooooooo  $$$$$$$$$$$$$$$$$$$$$$$$$$",
"$$$$$$$$$$$$$$  ####oo..  oooooo  ..  $$$$$$$$$$$$$$$$$$$$$$$$$$",
"$$$$$$$$$$$$$$  ####oo..  oooooo  ..  $$$$$$$$$$$$$$$$$$$$$$$$$$",
"$$$$$$$$$$$$$$  ####oooooooooooooooo  $$$$$$$$$$$$$$$$$$$$$$$$$$",
"$$$$$$$$$$$$$$  ####oooooooooooooooo  $$$$$$$$$$$$$$$$$$$$$$$$$$",
"$$$$$$$$$$$$$$  ######oooooooooooo##  $$$$$$$$$$$$$$$$$$$$$$$$$$",
"$$$$$$$$$$$$$$  ######oooooooooooo##  $$$$$$$$$$$$$$$$$$$$$$$$$$",
"$$$$$$$$$$$$$$  ####################  $$$$$$$$$$$$$$$$$$$$$$$$$$",
"$$$$$$$$$$$$$$  ####################  $$$$$$$$$$$$$$$$$$$$$$$$$$",
"$$$$$$$$$$$$  OO                        $$$$$$$$$$$$$$$$$$$$$$$$",
"$$$$$$$$$$$$  OO                        $$$$$$$$$$$$$$$$$$$$$$$$",
"$$$$$$$$$$$$  OO    oooo  @@@@@@OO  oooo  $$$$$$$$$$$$$$$$$$$$$$",
"$$$$$$$$$$$$  OO    oooo  @@@@@@OO  oooo  $$$$$$$$$$$$$$$$$$$$$$",
"$$$$$$$$$$$$  XXXX  oooo  @@@@@@XX  oooo  $$$$$$$$$$$$$$$$$$$$$$",
"$$$$$$$$$$$$  XXXX  oooo  @@@@@@XX  oooo  $$$$$$$$$$$$$$$$$$$$$$",
"$$$$$$$$$$$$  XXXXXX    XX@@@@@@XX      $$$$$$$$$$$$$$$$$$$$$$$$",
"$$$$$$$$$$$$  XXXXXX    XX@@@@@@XX      $$$$$$$$$$$$$$$$$$$$$$$$",
"$$$$$$$$$$$$$$  XXXX  ++++++++++++  $$$$$$$$$$$$$$$$$$$$$$$$$$$$",
"$$$$$$$$$$$$$$  XXXX  ++++++++++++  $$$$$$$$$$$$$$$$$$$$$$$$$$$$",
"$$$$$$$$$$$$$$$$      ++        ++  $$$$$$$$$$$$$$$$$$$$$$$$$$$$",
"$$$$$$$$$$$$$$$$      ++        ++  $$$$$$$$$$$$$$$$$$$$$$$$$$$$",
"$$$$$$$$$$$$$$$$$$$$  oo  $$$$  oo  $$$$$$$$$$$$$$$$$$$$$$$$$$$$",
"$$$$$$$$$$$$$$$$$$$$  oo  $$$$  oo  $$$$$$$$$$$$$$$$$$$$$$$$$$$$",
"$$$$$$$$$$$$$$$$$$$$$$$$$$$$$$$$$$$$$$$$$$$$$$$$$$$$$$$$$$$$$$$$",
"$$$$$$$$$$$$$$$$$$$$$$$$$$$$$$$$$$$$$$$$$$$$$$$$$$$$$$$$$$$$$$$$",
"$$$$$$$$$$$$$$$$$$$$$$$$$$$$$$$$$$$$$$$$$$$$$$$$$$$$$$$$$$$$$$$$",
"$$$$$$$$$$$$$$$$$$$$$$$$$$$$$$$$$$$$$$$$$$$$$$$$$$$$$$$$$$$$$$$$",
"$$$$$$$$$$$$$$$$$$$$$$$$$$$$$$$$$$$$$$$$$$$$$$$$$$$$$$$$$$$$$$$$",
"$$$$$$$$$$$$$$$$$$$$$$$$$$$$$$$$$$$$$$$$$$$$$$$$$$$$$$$$$$$$$$$$",
"$$$$$$$$$$$$$$$$$$$$$$$$$$$$$$$$$$$$$$$$$$$$$$$$$$$$$$$$$$$$$$$$",
"$$$$$$$$$$$$$$$$$$$$$$$$$$$$$$$$$$$$$$$$$$$$$$$$$$$$$$$$$$$$$$$$",
"$$$$$$$$$$$$$$$$$$$$$$$$$$$$$$$$$$$$$$$$$$$$$$$$$$$$$$$$$$$$$$$$",
"$$$$$$$$$$$$$$$$$$$$$$$$$$$$$$$$$$$$$$$$$$$$$$$$$$$$$$$$$$$$$$$$",
"$$$$$$$$$$$$$$$$$$$$$$$$$$$$$$$$$$$$$$$$$$$$$$$$$$$$$$$$$$$$$$$$",
"$$$$$$$$$$$$$$$$$$$$$$$$$$$$$$$$$$$$$$$$$$$$$$$$$$$$$$$$$$$$$$$$"
};
