/* XPM */
static char *result[] = {
/* columns rows colors chars-per-pixel */
"64 64 8 1 ",
"  c #101E29",
". c #4B9620",
"X c #EDA579",
"o c #9AD47D",
"O c #0763D0",
"+ c #038FCD",
"@ c #F8F8F8",
"# c None",
/* pixels */
"################################################################",
"################################################################",
"################################################################",
"################################################################",
"################################################################",
"################################################################",
"################################################################",
"################################################################",
"################################################################",
"################################################################",
"################################################################",
"################################################################",
"################################################################",
"################################################################",
"################################################################",
"################################################################",
"################################################################",
"################################################################",
"################################################################",
"################################################################",
"################################################################",
"################################################################",
"################################################################",
"################################################################",
"################################################################",
"################################################################",
"################################################################",
"################################################################",
"################################################################",
"################################################################",
"################################################################",
"################################################################",
"################################################################",
"################################################################",
"####################################    ######    ##############",
"####################################    ######    ##############",
"##################################  @@@@      @@@@  ############",
"##################################  @@@@      @@@@  ############",
"############################      @@@@@@@@@@@@@@@@@@  ##########",
"############################      @@@@@@@@@@@@@@@@@@  ##########",
"##########################  ..oo  @@@@@@@@@@@@@@@@@@@@  ########",
"##########################  ..oo  @@@@@@@@@@@@@@@@@@@@  ########",
"########################  ....oo  @@@@@@@@@@@@@@@@@@@@  ########",
"########################  ....oo  @@@@@@@@@@@@@@@@@@@@  ########",
"########################  ....oo  @@@@@@@@@@@@@@@@@@@@  ########",
"########################  ....oo  @@@@@@@@@@@@@@@@@@@@  ########",
"######################  OO        @@@@@@XXXXXXXXXXXX@@  ########",
"######################  OO        @@@@@@XXXXXXXXXXXX@@  ########",
"####################    OO  XXXX  @@@@XX    XXXXXX      ########",
"####################    OO  XXXX  @@@@XX    XXXXXX      ########",
"####################  XXOO++  XXXX                    ##########",
"####################  XXOO++  XXXX                    ##########",
"################################################################",
"################################################################",
"################################################################",
"################################################################",
"################################################################",
"################################################################",
"################################################################",
"################################################################",
"################################################################",
"################################################################",
"################################################################",
"################################################################"
};
