/* XPM */
static char *result[] = {
/* columns rows colors chars-per-pixel */
"64 64 6 1 ",
"  c #0D4A0F",
". c #39630F",
"X c #2E3740",
"o c #BCB7C5",
"O c #F8F8F8",
"+ c None",
/* pixels */
"++++++++++++++++++++++++++++++++++++++++++++++++++++++++++++++++",
"++++++++++++++++++++++++++++++++++++++++++++++++++++++++++++++++",
"++++++++++++++++++++++++++++++++++++++++++++++++++++++++++++++++",
"++++++++++++++++++++++++++++++++++++++++++++++++++++++++++++++++",
"++++++++++++++++++++++++++++++++++++++++++++++++++++++++++++++++",
"++++++++++++++++++++++++++++++++++++++++++++++++++++++++++++++++",
"++++++++++++++++++++++++++++++++++++++++++++++++++++++++++++++++",
"++++++++++++++++++++++++++++++++++++++++++++++++++++++++++++++++",
"++++++++++++++++++++++++++++++++++++++++++++++++++++++++++++++++",
"++++++++++++++++++++++++++++++++++++++++++++++++++++++++++++++++",
"++++++++++++++++++++++++++++++++++++++++++++++++++++++++++++++++",
"++++++++++++++++++++++++++++++++++++++++++++++++++++++++++++++++",
"++++++++++++++++++++++++++++++++++++++++++++++++++++++++++++++++",
"++++++++++++++++++++++++++++++++++++++++++++++++++++++++++++++++",
"++++++++++++++++++++++++++++++++++++++++++++++++++++++++++++++++",
"++++++++++++++++++++++++++++++++++++++++++++++++++++++++++++++++",
"++++++++++++++++++++++++++++++++++++++++++++++++++++++++++++++++",
"++++++++++++++++++++++++++++++++++++++++++++++++++++++++++++++++",
"++++++++++++++++++++++++++++++++++++++++++++++++++++++++++++++++",
"++++++++++++++++++++++++++++++++++++++++++++++++++++++++++++++++",
"++++++++++++++++++++++++++++++++++++++++++++++++++++++++++++++++",
"++++++++++++++++++++++++++++++++++++++++++++++++++++++++++++++++",
"++++++++++++++++++++++++++++++++++++++++++++++++++++++++++++++++",
"++++++++++++++++++++++++++++++++++++++++++++++++++++++++++++++++",
"++++++++++++++++++++++++++++++++++++++++++++++++++++++++++++++++",
"++++++++++++++++++++++++++++++++++++++++++++++++++++++++++++++++",
"++++++++++++++++++++++++++++++++++++++++++++++++++++++++++++++++",
"++++++++++++++++++++++++++++++++++++++++++++++++++++++++++++++++",
"++++++++++++++++++++++++++++++++++++++++++++++++++++++++++++++++",
"++++++++++++++++++++++++++++++++++++++++++++++++++++++++++++++++",
"++++++++++++++++++++++++++++++++++++++++++++++++++++++++++++++++",
"++++++++++++++++++++++++++++++++++++++++++++++++++++++++++++++++",
"++++++++++++++++++++++++++++++++++++++++++++++++++++++++++++++++",
"++++++++++++++++++++++++++++++++++++++++++++++++++++++++++++++++",
"++++++++++++++++++++++++++++++++++++++++++++++++++++++++++++++++",
"++++++++++++++++++++++++++++++++++++++++++++++++++++++++++++++++",
"++++++++++++++++++++++++++++++++++++++++++++++++++++++++++++++++",
"++++++++++++++++++++++++++++++++++++++++++++++++++++++++++++++++",
"++++++++++++++++++++++++++++++++++++++++++++++++++++++++++++++++",
"++++++++++++++++++++++++++++++++++++++++++++++++++++++++++++++++",
"++++++++++++++++++++++++++++++++++++++++++++++++++++++++++++++++",
"++++++++++++++++++++++++++++++++++++++++++++++++++++++++++++++++",
"++++++++++++++++++++++++++++++++++++++++++++++++++++++++++++++++",
"++++++++++++++++++++++++++++++++++++++++++++++++++++++++++++++++",
"++++++++++++++++++++++++++++++++++++++XXXXXXXXXX++++++++++++++++",
"++++++++++++++++++++++++++++++++++++++XXXXXXXXXX++++++++++++++++",
"++++++++++++++++++++++++++++++++++++XXOOOOOOOOOOXX++++++++++++++",
"++++++++++++++++++++++++++++++++++++XXOOOOOOOOOOXX++++++++++++++",
"++++++++++++++++++++++++++++++++++XXOOOOOOOOOOOOOOXX++++++++++++",
"++++++++++++++++++++++++++++++++++XXOOOOOOOOOOOOOOXX++++++++++++",
"++++++++++++++++++++++++++++++++++XXOOXXOOOOOOXXOOXX++++++++++++",
"++++++++++++++++++++++++++++++++++XXOOXXOOOOOOXXOOXX++++++++++++",
"++++++++++++++++++++++++++++++++++XXooOOXXXXXXOOooXX++++++++++++",
"++++++++++++++++++++++++++++++++++XXooOOXXXXXXOOooXX++++++++++++",
"++++++++++++++++++++++++++++++++++++XXOOOOOOOOOOXX++++++++++++++",
"++++++++++++++++++++++++++++++++++++XXOOOOOOOOOOXX++++++++++++++",
"++++++++++++++++++++++++++++++++++++XXOOOOOOOOOOXX++++++++++++++",
"++++++++++++++++++++++++++++++++++++XXOOOOOOOOOOXX++++++++++++++",
"++++++++++++++++++++++++++            ........            ++++++",
"++++++++++++++++++++++++++            ........            ++++++",
"++++++++++++++++++++++++                ....              ++++++",
"++++++++++++++++++++++++                ....              ++++++",
"++++++++++++++++++++++++                                ++++++++",
"++++++++++++++++++++++++                                ++++++++"
};
